<?xml version="1.0" encoding="utf-8"?>
<!-- Generator: Adobe Illustrator 19.0.0, SVG Export Plug-In . SVG Version: 6.00 Build 0)  -->
<svg version="1.0" id="Layer_1" xmlns="http://www.w3.org/2000/svg" xmlns:xlink="http://www.w3.org/1999/xlink" x="0px" y="0px"
	 width="64px" height="10px" viewBox="0 0 64 10" style="enable-background:new 0 0 64 10;" xml:space="preserve">
<style type="text/css">
	.st0{fill:#30302F;}
	.st1{display:none;opacity:0.29;}
	.st2{display:inline;}
	.st3{fill:#00FFFF;}
	.st4{display:inline;fill:#00FFFF;}
</style>
<g id="XMLID_245_">
	<g id="XMLID_301_">
		<path id="XMLID_312_" class="st0" d="M3.3,7.4V3.6h1.5c1.2,0,2,0.8,2,1.9c0,1.2-0.8,1.9-2,1.9H3.3z M6,5.5c0-0.7-0.4-1.2-1.2-1.2
			H4.1v2.4h0.7C5.6,6.7,6,6.1,6,5.5z"/>
		<path id="XMLID_310_" class="st0" d="M7.7,7.4V3.6h2.7v0.7H8.5v0.8h1.9v0.7H8.5v0.9h1.9v0.7H7.7z"/>
		<path id="XMLID_308_" class="st0" d="M11.1,6.9l0.4-0.6c0.3,0.3,0.7,0.5,1.2,0.5c0.5,0,0.7-0.2,0.7-0.4c0-0.7-2.2-0.2-2.2-1.6
			c0-0.6,0.6-1.2,1.5-1.2c0.6,0,1.1,0.2,1.5,0.5l-0.5,0.6c-0.3-0.3-0.7-0.4-1.1-0.4c-0.3,0-0.5,0.1-0.5,0.4c0,0.6,2.2,0.2,2.2,1.6
			c0,0.7-0.5,1.2-1.5,1.2C12,7.5,11.5,7.2,11.1,6.9z"/>
		<path id="XMLID_306_" class="st0" d="M15.1,7.4V3.6h0.8v3.8H15.1z"/>
		<path id="XMLID_304_" class="st0" d="M16.8,5.5c0-1.2,0.9-2,2-2c0.8,0,1.3,0.4,1.6,0.9l-0.7,0.4c-0.2-0.3-0.5-0.5-0.9-0.5
			c-0.7,0-1.2,0.5-1.2,1.3c0,0.7,0.5,1.3,1.2,1.3c0.3,0,0.7-0.1,0.8-0.3V6h-1V5.3h1.8v1.5c-0.4,0.4-0.9,0.7-1.6,0.7
			C17.7,7.5,16.8,6.7,16.8,5.5z"/>
		<path id="XMLID_302_" class="st0" d="M24,7.4l-1.8-2.5v2.5h-0.8V3.6h0.8L24,6V3.6h0.8v3.8H24z"/>
	</g>
	<g id="XMLID_250_">
		<path id="XMLID_299_" class="st0" d="M39.1,5.5c0-1.2,0.9-2,2-2c0.8,0,1.3,0.5,1.6,0.9L42,4.8c-0.2-0.3-0.5-0.6-0.9-0.6
			c-0.7,0-1.2,0.5-1.2,1.3c0,0.7,0.5,1.3,1.2,1.3c0.4,0,0.7-0.2,0.9-0.6l0.7,0.3C42.5,7,42,7.4,41.1,7.4C40,7.4,39.1,6.6,39.1,5.5z"
			/>
		<path id="XMLID_296_" class="st0" d="M46.1,7.4l-0.2-0.6h-1.6L44,7.4h-0.9l1.5-3.8h1L47,7.4H46.1z M45.1,4.4L44.5,6h1.2L45.1,4.4z
			"/>
		<path id="XMLID_293_" class="st0" d="M47.7,7.4V3.5h1.8c0.8,0,1.3,0.6,1.3,1.2c0,0.7-0.5,1.2-1.3,1.2h-1v1.4H47.7z M49.9,4.8
			c0-0.3-0.2-0.5-0.6-0.5h-0.9v1h0.9C49.7,5.3,49.9,5.1,49.9,4.8z"/>
		<path id="XMLID_291_" class="st0" d="M51.5,7.4V3.5h0.8v3.8H51.5z"/>
		<path id="XMLID_289_" class="st0" d="M54.3,7.4V4.3h-1.1V3.5h3.1v0.7h-1.1v3.1H54.3z"/>
		<path id="XMLID_286_" class="st0" d="M59,7.4l-0.2-0.6h-1.6l-0.2,0.6H56l1.5-3.8h1L60,7.4H59z M58,4.4L57.4,6h1.2L58,4.4z"/>
		<path id="XMLID_282_" class="st0" d="M60.6,7.4V3.5h0.8v3.1H63v0.7H60.6z"/>
	</g>
	<path id="XMLID_367_" class="st0" d="M33.5,1.9l0.6,0.9c1.1,0.6,1.8,1.6,1.8,2.8c0,1.2-0.8,2.3-2,2.9l-0.5-5.5L32,0.7l-1.4,2.2
		l-0.5,5.5c-1.2-0.6-2-1.6-2-2.9c0-1.2,0.7-2.2,1.8-2.8l0.6-0.9c-1.7,0.5-2.9,1.9-2.9,3.6c0,2.1,2,3.8,4.4,3.8s4.4-1.7,4.4-3.8
		C36.4,3.8,35.2,2.4,33.5,1.9z"/>
</g>
<g id="XMLID_1_" class="st1">
	<g id="XMLID_21_" class="st2">
		<path id="XMLID_32_" class="st3" d="M2.2,6.2V2.4h1.5c1.2,0,2,0.8,2,1.9c0,1.2-0.8,1.9-2,1.9H2.2z M4.9,4.3c0-0.7-0.4-1.2-1.2-1.2
			H3v2.4h0.7C4.4,5.5,4.9,5,4.9,4.3z"/>
		<path id="XMLID_30_" class="st3" d="M6.6,6.2V2.4h2.7v0.7H7.4v0.8h1.9v0.7H7.4v0.9h1.9v0.7H6.6z"/>
		<path id="XMLID_28_" class="st3" d="M9.9,5.7l0.4-0.6c0.3,0.3,0.7,0.5,1.2,0.5c0.5,0,0.7-0.2,0.7-0.4c0-0.7-2.2-0.2-2.2-1.6
			c0-0.6,0.6-1.2,1.5-1.2c0.6,0,1.1,0.2,1.5,0.5l-0.5,0.6c-0.3-0.3-0.7-0.4-1.1-0.4c-0.3,0-0.5,0.1-0.5,0.4c0,0.6,2.2,0.2,2.2,1.6
			c0,0.7-0.5,1.2-1.5,1.2C10.8,6.3,10.3,6.1,9.9,5.7z"/>
		<path id="XMLID_26_" class="st3" d="M13.9,6.2V2.4h0.8v3.8H13.9z"/>
		<path id="XMLID_24_" class="st3" d="M15.6,4.3c0-1.2,0.9-2,2-2c0.8,0,1.3,0.4,1.6,0.9l-0.7,0.4c-0.2-0.3-0.5-0.5-0.9-0.5
			c-0.7,0-1.2,0.5-1.2,1.3c0,0.7,0.5,1.3,1.2,1.3c0.3,0,0.7-0.1,0.8-0.3V4.8h-1V4.1h1.8v1.5c-0.4,0.4-0.9,0.7-1.6,0.7
			C16.5,6.3,15.6,5.5,15.6,4.3z"/>
		<path id="XMLID_22_" class="st3" d="M22.8,6.2L21,3.7v2.5h-0.8V2.4H21l1.8,2.4V2.4h0.8v3.8H22.8z"/>
	</g>
	<g id="XMLID_3_" class="st2">
		<path id="XMLID_19_" class="st3" d="M37.9,4.3c0-1.2,0.9-2,2-2c0.8,0,1.3,0.5,1.6,0.9l-0.7,0.3C40.7,3.3,40.4,3,40,3
			c-0.7,0-1.2,0.5-1.2,1.3c0,0.7,0.5,1.3,1.2,1.3c0.4,0,0.7-0.2,0.9-0.6l0.7,0.3c-0.3,0.5-0.8,0.9-1.6,0.9
			C38.8,6.3,37.9,5.5,37.9,4.3z"/>
		<path id="XMLID_16_" class="st3" d="M45,6.2l-0.2-0.6h-1.6l-0.2,0.6h-0.9l1.5-3.8h1l1.5,3.8H45z M43.9,3.2l-0.6,1.7h1.2L43.9,3.2z
			"/>
		<path id="XMLID_13_" class="st3" d="M46.5,6.2V2.4h1.8c0.8,0,1.3,0.6,1.3,1.2c0,0.7-0.5,1.2-1.3,1.2h-1v1.4H46.5z M48.8,3.6
			c0-0.3-0.2-0.5-0.6-0.5h-0.9v1h0.9C48.5,4.1,48.8,3.9,48.8,3.6z"/>
		<path id="XMLID_11_" class="st3" d="M50.4,6.2V2.4h0.8v3.8H50.4z"/>
		<path id="XMLID_9_" class="st3" d="M53.1,6.2V3.1H52V2.4h3.1v0.7h-1.1v3.1H53.1z"/>
		<path id="XMLID_6_" class="st3" d="M57.9,6.2l-0.2-0.6H56l-0.2,0.6h-0.9l1.5-3.8h1l1.5,3.8H57.9z M56.8,3.2l-0.6,1.7h1.2L56.8,3.2
			z"/>
		<path id="XMLID_4_" class="st3" d="M59.4,6.2V2.4h0.8v3.1h1.6v0.7H59.4z"/>
	</g>
	<path id="XMLID_2_" class="st4" d="M32.3,0.7l0.6,0.9c1.1,0.6,1.8,1.6,1.8,2.8c0,1.2-0.8,2.3-2,2.9l-0.5-5.5l-1.4-2.2l-1.4,2.2
		L29,7.2c-1.2-0.6-2-1.6-2-2.9c0-1.2,0.7-2.2,1.8-2.8l0.6-0.9c-1.7,0.5-2.9,1.9-2.9,3.6c0,2.1,2,3.8,4.4,3.8s4.4-1.7,4.4-3.8
		C35.2,2.6,34,1.2,32.3,0.7z"/>
</g>
</svg>
