<?xml version="1.0" encoding="utf-8"?>
<!-- Generator: Adobe Illustrator 19.0.0, SVG Export Plug-In . SVG Version: 6.00 Build 0)  -->
<svg version="1.0" id="Layer_1" xmlns="http://www.w3.org/2000/svg" xmlns:xlink="http://www.w3.org/1999/xlink" x="0px" y="0px"
	 width="236.5px" height="34.7px" viewBox="-24.2 108.6 236.5 34.7" style="enable-background:new -24.2 108.6 236.5 34.7;"
	 xml:space="preserve">
<style type="text/css">
	.st0{fill:#2E303D;}
</style>
<g id="XMLID_245_">
	<g id="XMLID_301_">
		<path id="XMLID_312_" class="st0" d="M-10.7,134.8v-14h5.5c4.4,0,7.4,2.8,7.4,7c0,4.2-3,7-7.4,7H-10.7z M-0.8,127.7
			c0-2.5-1.5-4.4-4.4-4.4h-2.5v8.8h2.5C-2.4,132.1-0.8,130.1-0.8,127.7z"/>
		<path id="XMLID_310_" class="st0" d="M5.4,134.8v-14h9.9v2.6H8.4v2.9h6.8v2.6H8.4v3.2h6.9v2.6H5.4V134.8z"/>
		<path id="XMLID_308_" class="st0" d="M17.6,132.8l1.6-2.3c1,1,2.5,1.9,4.5,1.9c1.7,0,2.4-0.7,2.4-1.6c0-2.4-8.1-0.7-8.1-6
			c0-2.3,2-4.3,5.3-4.3c2.2,0,4.1,0.7,5.5,2l-1.6,2.2c-1.1-1-2.6-1.5-4.1-1.5c-1.3,0-2,0.5-2,1.4c0,2.2,8,0.7,8,5.9
			c0,2.6-1.8,4.5-5.6,4.5C20.9,135,19,134.1,17.6,132.8z"/>
		<path id="XMLID_306_" class="st0" d="M32.2,134.8v-14h3v14H32.2z"/>
		<path id="XMLID_304_" class="st0" d="M38.3,127.8c0-4.4,3.4-7.2,7.5-7.2c2.9,0,4.7,1.5,5.8,3.1l-2.5,1.3c-0.7-1-1.8-1.8-3.3-1.8
			c-2.6,0-4.4,2-4.4,4.6c0,2.6,1.8,4.6,4.4,4.6c1.2,0,2.4-0.5,3-1.1v-1.7h-3.7V127h6.7v5.4c-1.5,1.6-3.5,2.6-6,2.6
			C41.6,135,38.3,132.2,38.3,127.8z"/>
		<path id="XMLID_302_" class="st0" d="M64.7,134.8l-6.7-9.1v9.1h-3v-14h3.1l6.5,8.8v-8.8h3v14H64.7z"/>
	</g>
	<g id="XMLID_250_">
		<path id="XMLID_299_" class="st0" d="M119.9,127.7c0-4.3,3.3-7.2,7.5-7.2c3.1,0,4.8,1.7,5.8,3.4l-2.6,1.3c-0.6-1.1-1.8-2-3.3-2
			c-2.6,0-4.4,2-4.4,4.6c0,2.6,1.8,4.6,4.4,4.6c1.4,0,2.7-0.9,3.3-2l2.6,1.2c-1,1.7-2.8,3.4-5.8,3.4
			C123.1,134.9,119.9,132,119.9,127.7z"/>
		<path id="XMLID_296_" class="st0" d="M145.5,134.7l-0.9-2.4h-6l-0.9,2.4h-3.4l5.4-14h3.7l5.4,14H145.5z M141.6,123.6l-2.2,6h4.4
			L141.6,123.6z"/>
		<path id="XMLID_293_" class="st0" d="M151.2,134.7v-14h6.6c3,0,4.7,2.1,4.7,4.5s-1.7,4.5-4.7,4.5h-3.6v5H151.2z M159.4,125.2
			c0-1.2-0.9-1.9-2.1-1.9h-3.1v3.7h3.1C158.5,127,159.4,126.3,159.4,125.2z"/>
		<path id="XMLID_291_" class="st0" d="M165.3,134.7v-14h3v14H165.3z"/>
		<path id="XMLID_289_" class="st0" d="M175.3,134.7v-11.4h-4.1v-2.6h11.2v2.6h-4.1v11.4H175.3z"/>
		<path id="XMLID_286_" class="st0" d="M192.6,134.7l-0.9-2.4h-6l-0.9,2.4h-3.4l5.4-14h3.7l5.4,14H192.6z M188.7,123.6l-2.2,6h4.4
			L188.7,123.6z"/>
		<path id="XMLID_282_" class="st0" d="M198.2,134.7v-14h3V132h5.9v2.6L198.2,134.7L198.2,134.7z"/>
	</g>
	<path id="XMLID_367_" class="st0" d="M99.3,114.6l2.3,3.1c3.8,2.1,6.4,5.8,6.4,10.1c0,4.5-2.9,8.4-7.2,10.5l-1.8-20l-5-8l-5,8
		l-1.8,20c-4.3-2.1-7.2-6-7.2-10.5c0-4.2,2.6-7.9,6.4-10.1l2.3-3.1c-6.2,1.9-10.7,7.1-10.7,13.2c0,7.7,7.2,14,16,14s16-6.3,16-14
		C110,121.7,105.5,116.5,99.3,114.6z"/>
</g>
</svg>
