<?xml version="1.0" encoding="utf-8"?>
<!-- Generator: Adobe Illustrator 18.1.1, SVG Export Plug-In . SVG Version: 6.00 Build 0)  -->
<svg version="1.0" id="Layer_1" xmlns="http://www.w3.org/2000/svg" xmlns:xlink="http://www.w3.org/1999/xlink" x="0px" y="0px"
	 width="70px" height="50px" viewBox="30 -20 70 50" enable-background="new 30 -20 70 50" xml:space="preserve">
<g>
	<path id="XMLID_4_" fill="#2E303D" d="M70.3-14.2l2.3,3.1C76.4-9,79-5.3,79-1c0,4.5-2.9,8.4-7.2,10.5l-1.8-20l-5-8l-5,8l-1.8,20
		C53.9,7.4,51,3.5,51-1c0-4.2,2.6-7.9,6.4-10.1l2.3-3.1C53.5-12.3,49-7.1,49-1c0,7.7,7.2,14,16,14S81,6.7,81-1
		C81-7.1,76.6-12.3,70.3-14.2z"/>
	<g>
		<g>
			<path fill="#2E303D" d="M33.5,26.7h-3.1v-8.3h3.1c2.6,0,3.7,1.2,3.7,4.1C37.2,25.5,36,26.7,33.5,26.7z M33.5,20.1h-1.2V25h1.2
				c1.3,0,1.8-0.4,1.8-2.5C35.3,20.6,34.8,20.1,33.5,20.1z"/>
			<path fill="#2E303D" d="M37.8,23.3c0-2.1,0.9-3.4,2.9-3.4c1.7,0,2.8,1,2.8,3.1c0,0.3,0,0.6,0,0.8h-4c0.1,1.1,0.6,1.5,1.8,1.5
				c0.6,0,1.2-0.1,1.8-0.3l0.2,1.4c-0.6,0.3-1.3,0.4-2.2,0.4C38.8,26.8,37.8,25.6,37.8,23.3z M41.9,22.7c0-1-0.5-1.4-1.2-1.4
				c-0.8,0-1.1,0.4-1.2,1.4H41.9z"/>
			<path fill="#2E303D" d="M46,26.8c-0.8,0-1.5-0.2-2.1-0.5l0.2-1.4c0.5,0.3,1.3,0.5,1.9,0.5c0.7,0,1-0.3,1-0.7
				c0-1.1-3.1-0.5-3.1-2.8c0-1.2,0.8-2.1,2.5-2.1c0.7,0,1.3,0.1,1.9,0.4l-0.1,1.4c-0.5-0.2-1.3-0.3-1.8-0.3c-0.6,0-0.9,0.2-0.9,0.6
				c0,1,3,0.4,3,2.7C48.6,26,47.8,26.8,46,26.8z"/>
			<path fill="#2E303D" d="M50,19.3c-0.7,0-1-0.2-1-0.7s0.3-0.7,1-0.7s1,0.3,1,0.7C50.9,19.1,50.6,19.3,50,19.3z M49.1,26.7v-6.6
				l1.8-0.1v6.7C50.9,26.7,49.1,26.7,49.1,26.7z"/>
			<path fill="#2E303D" d="M53.1,24c-0.1,0.1-0.2,0.2-0.2,0.3c0,0.2,0.1,0.3,0.4,0.3l1.6,0.1c1.6,0.1,2.2,0.7,2.2,1.7
				c0,1.3-0.9,2.2-3.1,2.2c-1.9,0-2.7-0.7-2.7-1.8c0-0.4,0.2-0.8,0.5-1.1c-0.3-0.2-0.5-0.5-0.5-1c0-0.4,0.3-0.9,0.8-1.1
				c-0.4-0.3-0.7-0.8-0.7-1.6c0-1.2,0.7-2.1,2.6-2.1c0.6,0,1.2,0.1,1.7,0.4l1.1-0.4l0.4,0.8l-0.7,0.5c0.1,0.2,0.1,0.4,0.1,0.7
				c0,1.3-0.7,2-2.5,2C53.7,24,53.4,24,53.1,24z M53,26c-0.2,0.2-0.3,0.4-0.3,0.5c0,0.5,0.4,0.7,1.2,0.7c1.3,0,1.6-0.2,1.6-0.6
				c0-0.3-0.2-0.5-0.9-0.5L53,26z M53.1,22c0,0.6,0.3,0.8,0.8,0.8c0.7,0,0.9-0.2,0.9-0.8s-0.3-0.8-0.9-0.8
				C53.3,21.2,53.1,21.5,53.1,22z"/>
			<path fill="#2E303D" d="M61.6,26.7v-4.2c0-0.7-0.4-1-1.1-1c-0.4,0-0.9,0.2-1.1,0.5v4.8h-1.7v-6.6l1.2-0.1l0.3,0.6
				c0.5-0.4,1.1-0.7,1.8-0.7c1.4,0,2.3,0.9,2.3,2.6v4.2L61.6,26.7L61.6,26.7z"/>
		</g>
		<g>
			<path fill="#2E303D" d="M72.3,20.3c-0.4-0.2-1-0.3-1.6-0.3c-1.5,0-2,0.6-2,2.6c0,2.1,0.5,2.7,2,2.7c0.6,0,1.1-0.1,1.6-0.3
				l0.2,1.5C72,26.8,71.2,27,70.4,27c-2.5,0-3.7-1.4-3.7-4.3c0-2.8,1.2-4.2,3.8-4.2c0.7,0,1.4,0.2,1.9,0.3L72.3,20.3z"/>
			<path fill="#2E303D" d="M76.8,26.1L76.8,26.1c-0.4,0.5-1.1,0.7-1.8,0.7c-1.3,0-2.1-0.7-2.1-2.2c0-1.2,0.9-2.1,2.4-2.1
				c0.5,0,0.9,0.1,1.3,0.2v-0.4c0-0.7-0.4-1-1.3-1c-0.7,0-1.2,0.1-1.8,0.4l-0.1-1.4c0.7-0.3,1.4-0.4,2.3-0.4c2,0,2.7,0.8,2.7,2.7
				v4.1h-1.3L76.8,26.1z M76.6,23.9c-0.2-0.1-0.5-0.1-0.9-0.1c-0.8,0-1.1,0.3-1.1,0.9c0,0.6,0.4,0.9,0.9,0.9c0.6,0,1.1-0.4,1.1-0.8
				V23.9z"/>
			<path fill="#2E303D" d="M82.2,26.8c-0.6,0-1.1-0.1-1.6-0.5l0,0v0.9v1.2h-1.7v-8.3l1.2-0.1l0.3,0.6c0.5-0.4,1.1-0.7,1.8-0.7
				c1.6,0,2.5,0.9,2.5,3.4C84.8,25.7,83.8,26.8,82.2,26.8z M81.8,21.4c-0.5,0-0.9,0.2-1.1,0.5v2.9c0.2,0.3,0.6,0.6,1.1,0.6
				c0.8,0,1.3-0.4,1.3-2.1C83,21.8,82.7,21.4,81.8,21.4z"/>
			<path fill="#2E303D" d="M86.2,19.3c-0.7,0-1-0.2-1-0.7s0.3-0.7,1-0.7c0.7,0,1,0.3,1,0.7C87.1,19.1,86.8,19.3,86.2,19.3z
				 M85.3,26.7v-6.6L87,20v6.7H85.3z"/>
			<path fill="#2E303D" d="M90.1,21.3v3.4c0,0.5,0.3,0.7,0.8,0.7c0.2,0,0.4,0,0.5-0.1l0.1,1.2c-0.2,0.1-0.7,0.2-1.1,0.2
				c-1.3,0-2-0.8-2-2v-3.5h-0.7v-1.3h0.8l0.3-1.5l1.3-0.1v1.6h1.5v1.3L90.1,21.3L90.1,21.3z"/>
			<path fill="#2E303D" d="M95.7,26.1L95.7,26.1c-0.4,0.5-1.1,0.7-1.8,0.7c-1.3,0-2.1-0.7-2.1-2.2c0-1.2,0.9-2.1,2.4-2.1
				c0.5,0,0.9,0.1,1.3,0.2v-0.4c0-0.7-0.4-1-1.3-1c-0.7,0-1.2,0.1-1.8,0.4l-0.1-1.4c0.7-0.3,1.4-0.4,2.3-0.4c2,0,2.7,0.8,2.7,2.7
				v4.1H96L95.7,26.1z M95.5,23.9c-0.2-0.1-0.5-0.1-0.9-0.1c-0.8,0-1.1,0.3-1.1,0.9c0,0.6,0.4,0.9,0.9,0.9c0.6,0,1.1-0.4,1.1-0.8
				V23.9z"/>
			<path fill="#2E303D" d="M97.9,26.7v-8.6l1.7-0.1v8.6h-1.7V26.7z"/>
		</g>
	</g>
</g>
</svg>
