<?xml version="1.0" encoding="utf-8"?>
<!-- Generator: Adobe Illustrator 18.1.1, SVG Export Plug-In . SVG Version: 6.00 Build 0)  -->
<svg version="1.0" id="Layer_1" xmlns="http://www.w3.org/2000/svg" xmlns:xlink="http://www.w3.org/1999/xlink" x="0px" y="0px"
	 viewBox="0 0 70 50" enable-background="new 0 0 70 50" xml:space="preserve">
<g>
	<path id="XMLID_4_" fill="#2E303D" d="M40.2,5.8l2.3,3.1c3.8,2.1,6.4,5.8,6.4,10.1c0,4.5-2.9,8.4-7.2,10.5l-1.8-20l-5-8l-5,8
		l-1.8,20c-4.3-2.1-7.2-6-7.2-10.5c0-4.2,2.6-7.9,6.4-10.1l2.3-3.1C23.4,7.7,18.9,12.9,18.9,19c0,7.7,7.2,14,16,14s16-6.3,16-14
		C50.9,12.9,46.5,7.7,40.2,5.8z"/>
	<g>
		<g>
			<path fill="#2E303D" d="M3.5,46.7H0.4v-8.3h3.1c2.6,0,3.7,1.2,3.7,4.1C7.2,45.5,6,46.7,3.5,46.7z M3.5,40.1H2.3v4.9h1.2
				c1.3,0,1.8-0.4,1.8-2.5C5.3,40.6,4.8,40.1,3.5,40.1z"/>
			<path fill="#2E303D" d="M7.8,43.3c0-2.1,0.9-3.4,2.9-3.4c1.7,0,2.8,1,2.8,3.1c0,0.3,0,0.6,0,0.8H9.5c0.1,1.1,0.6,1.5,1.8,1.5
				c0.6,0,1.2-0.1,1.8-0.3l0.2,1.4c-0.6,0.3-1.3,0.4-2.2,0.4C8.8,46.8,7.8,45.6,7.8,43.3z M11.9,42.7c0-1-0.5-1.4-1.2-1.4
				c-0.8,0-1.1,0.4-1.2,1.4H11.9z"/>
			<path fill="#2E303D" d="M16,46.8c-0.8,0-1.5-0.2-2.1-0.5l0.2-1.4c0.5,0.3,1.3,0.5,1.9,0.5c0.7,0,1-0.3,1-0.7
				c0-1.1-3.1-0.5-3.1-2.8c0-1.2,0.8-2.1,2.5-2.1c0.7,0,1.3,0.1,1.9,0.4l-0.1,1.4c-0.5-0.2-1.3-0.3-1.8-0.3c-0.6,0-0.9,0.2-0.9,0.6
				c0,1,3,0.4,3,2.7C18.6,46,17.8,46.8,16,46.8z"/>
			<path fill="#2E303D" d="M20,39.3c-0.7,0-1-0.2-1-0.7c0-0.5,0.3-0.7,1-0.7c0.7,0,1,0.3,1,0.7C20.9,39.1,20.6,39.3,20,39.3z
				 M19.1,46.7v-6.6l1.8-0.1v6.7H19.1z"/>
			<path fill="#2E303D" d="M23.1,44c-0.1,0.1-0.2,0.2-0.2,0.3c0,0.2,0.1,0.3,0.4,0.3l1.6,0.1c1.6,0.1,2.2,0.7,2.2,1.7
				c0,1.3-0.9,2.2-3.1,2.2c-1.9,0-2.7-0.7-2.7-1.8c0-0.4,0.2-0.8,0.5-1.1c-0.3-0.2-0.5-0.5-0.5-1c0-0.4,0.3-0.9,0.8-1.1
				c-0.4-0.3-0.7-0.8-0.7-1.6c0-1.2,0.7-2.1,2.6-2.1c0.6,0,1.2,0.1,1.7,0.4l1.1-0.4l0.4,0.8l-0.7,0.5c0.1,0.2,0.1,0.4,0.1,0.7
				c0,1.3-0.7,2-2.5,2C23.7,44,23.4,44,23.1,44z M23,46c-0.2,0.2-0.3,0.4-0.3,0.5c0,0.5,0.4,0.7,1.2,0.7c1.3,0,1.6-0.2,1.6-0.6
				c0-0.3-0.2-0.5-0.9-0.5L23,46z M23.1,42c0,0.6,0.3,0.8,0.8,0.8c0.7,0,0.9-0.2,0.9-0.8c0-0.6-0.3-0.8-0.9-0.8
				C23.3,41.2,23.1,41.5,23.1,42z"/>
			<path fill="#2E303D" d="M31.6,46.7v-4.2c0-0.7-0.4-1-1.1-1c-0.4,0-0.9,0.2-1.1,0.5v4.8h-1.7v-6.6l1.2-0.1l0.3,0.6
				c0.5-0.4,1.1-0.7,1.8-0.7c1.4,0,2.3,0.9,2.3,2.6v4.2H31.6z"/>
		</g>
		<g>
			<path fill="#2E303D" d="M42.3,40.3c-0.4-0.2-1-0.3-1.6-0.3c-1.5,0-2,0.6-2,2.6c0,2.1,0.5,2.7,2,2.7c0.6,0,1.1-0.1,1.6-0.3
				l0.2,1.5c-0.5,0.3-1.3,0.5-2.1,0.5c-2.5,0-3.7-1.4-3.7-4.3c0-2.8,1.2-4.2,3.8-4.2c0.7,0,1.4,0.2,1.9,0.3L42.3,40.3z"/>
			<path fill="#2E303D" d="M46.8,46.1L46.8,46.1c-0.4,0.5-1.1,0.7-1.8,0.7c-1.3,0-2.1-0.7-2.1-2.2c0-1.2,0.9-2.1,2.4-2.1
				c0.5,0,0.9,0.1,1.3,0.2v-0.4c0-0.7-0.4-1-1.3-1c-0.7,0-1.2,0.1-1.8,0.4l-0.1-1.4c0.7-0.3,1.4-0.4,2.3-0.4c2,0,2.7,0.8,2.7,2.7
				v4.1h-1.3L46.8,46.1z M46.6,43.9c-0.2-0.1-0.5-0.1-0.9-0.1c-0.8,0-1.1,0.3-1.1,0.9c0,0.6,0.4,0.9,0.9,0.9c0.6,0,1.1-0.4,1.1-0.8
				V43.9z"/>
			<path fill="#2E303D" d="M52.2,46.8c-0.6,0-1.1-0.1-1.6-0.5l0,0l0,0.9v1.2h-1.7v-8.3l1.2-0.1l0.3,0.6c0.5-0.4,1.1-0.7,1.8-0.7
				c1.6,0,2.5,0.9,2.5,3.4C54.8,45.7,53.8,46.8,52.2,46.8z M51.8,41.4c-0.5,0-0.9,0.2-1.1,0.5v2.9c0.2,0.3,0.6,0.6,1.1,0.6
				c0.8,0,1.3-0.4,1.3-2.1C53,41.8,52.7,41.4,51.8,41.4z"/>
			<path fill="#2E303D" d="M56.2,39.3c-0.7,0-1-0.2-1-0.7c0-0.5,0.3-0.7,1-0.7c0.7,0,1,0.3,1,0.7C57.1,39.1,56.8,39.3,56.2,39.3z
				 M55.3,46.7v-6.6L57,40v6.7H55.3z"/>
			<path fill="#2E303D" d="M60.1,41.3v3.4c0,0.5,0.3,0.7,0.8,0.7c0.2,0,0.4,0,0.5-0.1l0.1,1.2c-0.2,0.1-0.7,0.2-1.1,0.2
				c-1.3,0-2-0.8-2-2v-3.5h-0.7v-1.3h0.8l0.3-1.5l1.3-0.1v1.6h1.5v1.3H60.1z"/>
			<path fill="#2E303D" d="M65.7,46.1L65.7,46.1c-0.4,0.5-1.1,0.7-1.8,0.7c-1.3,0-2.1-0.7-2.1-2.2c0-1.2,0.9-2.1,2.4-2.1
				c0.5,0,0.9,0.1,1.3,0.2v-0.4c0-0.7-0.4-1-1.3-1c-0.7,0-1.2,0.1-1.8,0.4l-0.1-1.4c0.7-0.3,1.4-0.4,2.3-0.4c2,0,2.7,0.8,2.7,2.7
				v4.1h-1.3L65.7,46.1z M65.5,43.9c-0.2-0.1-0.5-0.1-0.9-0.1c-0.8,0-1.1,0.3-1.1,0.9c0,0.6,0.4,0.9,0.9,0.9c0.6,0,1.1-0.4,1.1-0.8
				V43.9z"/>
			<path fill="#2E303D" d="M67.9,46.7v-8.6l1.7-0.1v8.6H67.9z"/>
		</g>
	</g>
</g>
</svg>
