<?xml version="1.0" encoding="UTF-8" standalone="no"?>
<svg width="30px" height="30px" viewBox="0 0 30 30" version="1.1" xmlns="http://www.w3.org/2000/svg" xmlns:xlink="http://www.w3.org/1999/xlink" xmlns:sketch="http://www.bohemiancoding.com/sketch/ns">
    <!-- Generator: Sketch 3.4.2 (15857) - http://www.bohemiancoding.com/sketch -->
    <title>Page 1</title>
    <desc>Created with Sketch.</desc>
    <defs></defs>
    <g id="Page-1" stroke="none" stroke-width="1" fill="none" fill-rule="evenodd" sketch:type="MSPage">
        <g id="Artboard-2" sketch:type="MSArtboardGroup">
            <g id="Page-1" sketch:type="MSLayerGroup">
                <path d="M15,0.6201 C13.619,0.6201 12.5,1.7391 12.5,3.1201 C12.5,4.5011 13.619,5.6201 15,5.6201 C16.381,5.6201 17.5,4.5011 17.5,3.1201 C17.5,1.7391 16.381,0.6201 15,0.6201 M15,1.1201 C16.103,1.1201 17,2.0171 17,3.1201 C17,4.2231 16.103,5.1201 15,5.1201 C13.897,5.1201 13,4.2231 13,3.1201 C13,2.0171 13.897,1.1201 15,1.1201" id="Fill-1" fill="#000000" sketch:type="MSShapeGroup"></path>
                <path d="M15,5.3701 L15,8.1201" id="Stroke-3" stroke="#000000" stroke-width="0.5" sketch:type="MSShapeGroup"></path>
                <path d="M9.5,20.1201 L2,20.1201 L2,17.6201" id="Stroke-5" stroke="#000000" stroke-width="0.5" sketch:type="MSShapeGroup"></path>
                <path d="M24.25,8.1201 L2,8.1201 L2,10.6201" id="Stroke-7" stroke="#000000" stroke-width="0.5" sketch:type="MSShapeGroup"></path>
                <path d="M28,11.6201 L28,20.1201 L20,20.1201" id="Stroke-9" stroke="#000000" stroke-width="0.5" sketch:type="MSShapeGroup"></path>
                <path d="M28,5.9534 C26.895,5.9534 26,6.8484 26,7.9534 C26,9.0584 26.895,9.9534 28,9.9534 C29.105,9.9534 30,9.0584 30,7.9534 C30,6.8484 29.105,5.9534 28,5.9534 M28,6.4534 C28.827,6.4534 29.5,7.1264 29.5,7.9534 C29.5,8.7804 28.827,9.4534 28,9.4534 C27.173,9.4534 26.5,8.7804 26.5,7.9534 C26.5,7.1264 27.173,6.4534 28,6.4534" id="Fill-11" fill="#000000" sketch:type="MSShapeGroup"></path>
                <path d="M2,12.0784 C0.895,12.0784 0,12.9734 0,14.0784 C0,15.1834 0.895,16.0784 2,16.0784 C3.105,16.0784 4,15.1834 4,14.0784 C4,12.9734 3.105,12.0784 2,12.0784 M2,12.5784 C2.827,12.5784 3.5,13.2514 3.5,14.0784 C3.5,14.9054 2.827,15.5784 2,15.5784 C1.173,15.5784 0.5,14.9054 0.5,14.0784 C0.5,13.2514 1.173,12.5784 2,12.5784" id="Fill-13" fill="#000000" sketch:type="MSShapeGroup"></path>
                <path d="M15,17.8284 C13.619,17.8284 12.5,18.9474 12.5,20.3284 C12.5,21.7094 13.619,22.8284 15,22.8284 C16.381,22.8284 17.5,21.7094 17.5,20.3284 C17.5,18.9474 16.381,17.8284 15,17.8284 M15,18.3284 C16.103,18.3284 17,19.2254 17,20.3284 C17,21.4314 16.103,22.3284 15,22.3284 C13.897,22.3284 13,21.4314 13,20.3284 C13,19.2254 13.897,18.3284 15,18.3284" id="Fill-15" fill="#000000" sketch:type="MSShapeGroup"></path>
                <path d="M15,29.6201 L15,22.6201" id="Stroke-17" stroke="#000000" stroke-width="0.5" sketch:type="MSShapeGroup"></path>
                <path d="M17.4583,26.8076 L15.0413,29.6206 L12.5413,26.8076" id="Stroke-19" stroke="#000000" stroke-width="0.5" sketch:type="MSShapeGroup"></path>
            </g>
        </g>
    </g>
</svg>