<?xml version="1.0" encoding="UTF-8" standalone="no"?>
<svg width="30px" height="30px" viewBox="0 0 30 30" version="1.1" xmlns="http://www.w3.org/2000/svg" xmlns:xlink="http://www.w3.org/1999/xlink" xmlns:sketch="http://www.bohemiancoding.com/sketch/ns">
    <!-- Generator: Sketch 3.4.2 (15857) - http://www.bohemiancoding.com/sketch -->
    <title>iteration</title>
    <desc>Created with Sketch.</desc>
    <defs></defs>
    <g id="Page-1" stroke="none" stroke-width="1" fill="none" fill-rule="evenodd" sketch:type="MSPage">
        <g id="Artboard-1" sketch:type="MSArtboardGroup" fill="#000000">
            <g id="iteration" sketch:type="MSLayerGroup">
                <path d="M2.5,17.2402 L1.5,17.2402 L1.5,20.2402 L9.5,20.2402 L9.5,19.2402 L2.5,19.2402 L2.5,17.2402 Z" id="Fill-1" sketch:type="MSShapeGroup"></path>
                <g id="Group-12" sketch:type="MSShapeGroup">
                    <path d="M13.5,2.7402 C13.5,1.9132 14.173,1.2402 15,1.2402 C15.827,1.2402 16.5,1.9132 16.5,2.7402 C16.5,3.5672 15.827,4.2402 15,4.2402 C14.173,4.2402 13.5,3.5672 13.5,2.7402 L13.5,2.7402 Z M2.5,8.2402 L14.5,8.2402 L15.5,8.2402 L24.25,8.2402 L24.25,7.2402 L15.5,7.2402 L15.5,5.1902 C16.641,4.9582 17.5,3.9492 17.5,2.7402 C17.5,1.3592 16.381,0.2402 15,0.2402 C13.619,0.2402 12.5,1.3592 12.5,2.7402 C12.5,3.9492 13.359,4.9582 14.5,5.1902 L14.5,7.2402 L1.5,7.2402 L1.5,10.2402 L2.5,10.2402 L2.5,8.2402 Z" id="Fill-2"></path>
                    <path d="M27.5,19.2402 L20,19.2402 L20,20.2402 L28.5,20.2402 L28.5,11.2402 L27.5,11.2402 L27.5,19.2402 Z" id="Fill-4"></path>
                    <path d="M28,5.5735 C26.895,5.5735 26,6.4685 26,7.5735 C26,8.6785 26.895,9.5735 28,9.5735 C29.105,9.5735 30,8.6785 30,7.5735 C30,6.4685 29.105,5.5735 28,5.5735" id="Fill-6"></path>
                    <path d="M4,13.6985 C4,12.5935 3.105,11.6985 2,11.6985 C0.895,11.6985 0,12.5935 0,13.6985 C0,14.8035 0.895,15.6985 2,15.6985 C3.105,15.6985 4,14.8035 4,13.6985" id="Fill-8"></path>
                    <path d="M13.5,19.9485 C13.5,19.1215 14.173,18.4485 15,18.4485 C15.827,18.4485 16.5,19.1215 16.5,19.9485 C16.5,20.7755 15.827,21.4485 15,21.4485 C14.173,21.4485 13.5,20.7755 13.5,19.9485 L13.5,19.9485 Z M15.5,27.9395 L15.5,22.3985 C16.641,22.1665 17.5,21.1575 17.5,19.9485 C17.5,18.5675 16.381,17.4485 15,17.4485 C13.619,17.4485 12.5,18.5675 12.5,19.9485 C12.5,21.1575 13.359,22.1665 14.5,22.3985 L14.5,27.8785 L12.916,26.0955 L12.168,26.7595 L15.049,29.9995 L17.837,26.7535 L17.079,26.1015 L15.5,27.9395 Z" id="Fill-10"></path>
                </g>
            </g>
        </g>
    </g>
</svg>