<svg xmlns="http://www.w3.org/2000/svg" xmlns:xlink="http://www.w3.org/1999/xlink" version="1.1" x="0px" y="0px" viewBox="0 0 100 100" enable-background="new 0 0 100 100" xml:space="preserve"><rect x="5" y="5" fill="none" width="90" height="90"></rect><g><path d="M74.883,91.878V43.4h-4.828l-0.803-28.656h1.861V9.338h-8.832V5.125H38.458v4.213h-8.822v5.406h1.981L30.767,43.4h-4.604   v48.478h-2.202v3.247H77.38v-3.247H74.883z M73.922,44.361v47.517h-2.511l-0.212-7.55h0.932v-2.71h0.592v-2.696h-0.592h-1.083   l-0.967-34.561H73.922z M49.326,85.738h-0.96h-3.049v6.14H30.292l0.224-7.55h39.722l0.211,7.55H52.374v-6.14H49.326z    M51.413,86.699v5.137h-2.086v-5.137H51.413z M48.365,86.699v5.137h-2.087v-5.137H48.365z M38.75,43.4l-0.02,0.961l-0.686,34.561   h-2.422l0.86-34.561l0.024-0.961l0.713-28.656h2.099L38.75,43.4z M39.692,44.361l0.019-0.961l0.569-28.656h2.097L41.954,43.4   l-0.014,0.961l-0.51,34.561h-2.424L39.692,44.361z M70.113,79.883h0.962h0.095h0.592v0.774H71.17h-0.072h-0.963H30.624h-0.961   h-0.082h-0.594v-0.774h0.594h0.105h0.961H70.113z M42.391,78.922l0.51-34.561l0.014-0.961l0.422-28.656h2.096L45.157,43.4   l-0.009,0.961l-0.334,34.561H42.391z M45.774,78.922l0.334-34.561l0.009-0.961l0.277-28.656h2.099L48.362,43.4l-0.005,0.961   l-0.159,34.561H45.774z M51.583,78.922H49.16l0.159-34.561l0.004-0.961l0.132-28.656h2.096L51.566,43.4v0.961L51.583,78.922z    M52.514,14.744h2.096L54.77,43.4l0.006,0.961l0.191,34.561h-2.423l-0.017-34.561V43.4L52.514,14.744z M55.57,14.744h2.099   L57.975,43.4l0.01,0.961l0.369,34.561h-2.426l-0.191-34.561L55.73,43.4L55.57,14.744z M61.736,78.922h-2.424l-0.367-34.561   l-0.01-0.961L58.63,14.744h2.099L61.178,43.4l0.016,0.961L61.736,78.922z M61.688,14.744h2.099L64.382,43.4l0.021,0.961   l0.719,34.561h-2.423l-0.544-34.561L62.139,43.4L61.688,14.744z M29.634,81.618h0.961H70.16h0.963h0.046v1.655v0.094H70.21H30.544   h-0.961L29.634,81.618z M70.086,78.922h-4.004l-0.719-34.561L65.343,43.4l-0.596-28.656h3.544L69.092,43.4l0.027,0.961   L70.086,78.922z M39.418,6.086H61.32v3.252H39.418V6.086z M30.596,13.783v-3.484h1.152h7.67H61.32h7.808h1.024v3.484h-0.928h-0.961   H32.606h-0.961H30.596z M31.7,44.361l0.028-0.961l0.85-28.656h3.681L35.545,43.4l-0.024,0.961l-0.86,34.561h-3.985L31.7,44.361z    M27.124,44.361h3.615l-1.025,34.561H28.62h-0.594v2.696h0.594v2.71h0.934l-0.224,7.55h-2.207L27.124,44.361L27.124,44.361z    M76.419,94.164H24.922v-1.325h1.241h3.139h42.136h3.445h1.536V94.164z"></path></g></svg>