<?xml version="1.0" encoding="UTF-8" standalone="no"?>
<svg width="30px" height="22px" viewBox="0 0 30 22" version="1.1" xmlns="http://www.w3.org/2000/svg" xmlns:xlink="http://www.w3.org/1999/xlink" xmlns:sketch="http://www.bohemiancoding.com/sketch/ns">
    <!-- Generator: Sketch 3.4.2 (15857) - http://www.bohemiancoding.com/sketch -->
    <title>Page 1</title>
    <desc>Created with Sketch.</desc>
    <defs></defs>
    <g id="Page-1" stroke="none" stroke-width="1" fill="none" fill-rule="evenodd" sketch:type="MSPage">
        <g id="Artboard-2" sketch:type="MSArtboardGroup" transform="translate(0.000000, -4.000000)" stroke="#000000" stroke-width="0.5" stroke-linecap="round" stroke-linejoin="round">
            <g id="Page-1" sketch:type="MSLayerGroup" transform="translate(0.000000, 4.000000)">
                <path d="M23.6213,15.3492 C22.9933,14.6562 19.6383,10.6702 19.6383,10.6702" id="Stroke-1" sketch:type="MSShapeGroup"></path>
                <path d="M17.6717,12.4052 C17.6717,12.4052 21.8887,17.7072 23.6217,17.4612 C24.1447,17.3872 24.8267,16.8912 23.6217,15.3492" id="Stroke-3" sketch:type="MSShapeGroup"></path>
                <path d="M15.9103,14.4825 L19.9303,18.0915 C19.9303,18.0915 22.2183,20.1695 23.3663,17.7075" id="Stroke-5" sketch:type="MSShapeGroup"></path>
                <path d="M14.5805,16.4846 L18.1795,19.7226 C18.1795,19.7226 19.9515,21.4106 21.0695,18.9746" id="Stroke-7" sketch:type="MSShapeGroup"></path>
                <path d="M15.6518,20.7844 C15.6518,20.7844 17.5138,22.2954 18.5378,20.6254" id="Stroke-9" sketch:type="MSShapeGroup"></path>
                <path d="M11.3891,5.795 L7.6831,6.108 C7.2041,6.149 6.7231,6.06 6.2911,5.851 L3.7611,4.628" id="Stroke-11" sketch:type="MSShapeGroup"></path>
                <path d="M2.2442,13.1075 L3.9952,13.2485 C4.4162,13.2945 4.8232,13.4315 5.1872,13.6495 L5.8682,14.0575" id="Stroke-13" sketch:type="MSShapeGroup"></path>
                <path d="M1.7628,2.0576 L2.2438,2.2666 C3.1758,2.6716 3.7698,3.6026 3.7308,4.6176 C3.6548,6.5936 3.3938,9.9096 2.5158,12.4116 C2.1938,13.3306 1.1238,13.7436 0.2498,13.3146 L0.2498,13.3146 C0.2498,13.3146 1.5808,8.6446 1.7628,2.0576 L1.7628,2.0576 Z" id="Stroke-15" sketch:type="MSShapeGroup"></path>
                <path d="M17.0518,9.6935 L14.9928,9.4505 C14.5518,9.3985 14.1398,9.6385 13.9338,10.0315 C13.5758,10.7145 12.7968,11.6695 11.2428,11.6695 C10.0768,11.6695 10.7018,10.0445 10.7018,10.0445 C10.7018,10.0445 11.2608,9.2465 11.4848,8.2245 C11.6068,7.6705 12.0118,7.2215 12.5278,6.9865 L14.5538,6.0625 C14.9328,5.8885 15.3598,5.8465 15.7658,5.9405 L19.7018,6.8575 C19.7018,6.8575 22.4908,7.6285 24.6078,4.3785" id="Stroke-17" sketch:type="MSShapeGroup"></path>
                <path d="M22.7641,14.0576 C22.7641,14.0576 24.0351,13.9626 24.5761,12.1696 C24.5761,12.1696 25.7021,12.2326 26.7021,11.2326" id="Stroke-19" sketch:type="MSShapeGroup"></path>
                <path d="M26.2361,0.7837 L26.2361,0.7837 C25.0831,1.4727 24.4681,2.8007 24.7071,4.1217 C25.0651,6.0937 25.7281,8.9897 26.8131,11.1487 C27.2501,12.0187 28.3641,12.2927 29.1761,11.7547 L29.1761,11.7547 C29.1761,11.7547 27.2581,7.2937 26.2361,0.7837 L26.2361,0.7837 Z" id="Stroke-21" sketch:type="MSShapeGroup"></path>
                <path d="M8.9728,16.5651 L8.2208,17.3171 C7.7668,17.7711 7.0318,17.7711 6.5778,17.3171 L6.5778,17.3171 C6.1238,16.8641 6.1238,16.1291 6.5778,15.6751 L7.3298,14.9221 C7.7838,14.4691 8.5188,14.4691 8.9728,14.9221 L8.9728,14.9221 C9.4268,15.3761 9.4268,16.1111 8.9728,16.5651 L8.9728,16.5651 Z" id="Stroke-23" sketch:type="MSShapeGroup"></path>
                <path d="M10.8746,16.1692 L10.8746,16.1692 C11.2826,16.5772 11.2836,17.2382 10.8756,17.6462 L9.5816,18.9402 C9.1746,19.3472 8.5126,19.3472 8.1046,18.9392 L8.1046,18.9392 C7.6966,18.5312 7.6966,17.8692 8.1036,17.4622 L8.7896,16.7492" id="Stroke-25" sketch:type="MSShapeGroup"></path>
                <path d="M12.582,17.4046 L12.582,17.4046 C12.987,17.8096 12.977,18.4776 12.559,18.8956 L11.231,20.2236 C10.813,20.6416 10.145,20.6526 9.74,20.2466 L9.74,20.2466 C9.334,19.8416 9.345,19.1736 9.763,18.7556 L10.715,17.8066" id="Stroke-27" sketch:type="MSShapeGroup"></path>
                <path d="M14.2159,18.9744 C14.2159,18.9744 14.7849,19.5454 14.0719,20.3414 L12.9149,21.4984 C12.5509,21.8624 11.9249,21.8274 11.5179,21.4194 L11.5179,21.4194 C11.1099,21.0124 11.0749,20.3864 11.4389,20.0224 L12.5589,18.8954" id="Stroke-29" sketch:type="MSShapeGroup"></path>
            </g>
        </g>
    </g>
</svg>