<?xml version="1.0" encoding="UTF-8" standalone="no"?>
<svg width="30px" height="30px" viewBox="0 0 30 30" version="1.1" xmlns="http://www.w3.org/2000/svg" xmlns:xlink="http://www.w3.org/1999/xlink" xmlns:sketch="http://www.bohemiancoding.com/sketch/ns">
    <!-- Generator: Sketch 3.4.2 (15857) - http://www.bohemiancoding.com/sketch -->
    <title>Page 1</title>
    <desc>Created with Sketch.</desc>
    <defs>
        <path id="path-1" d="M0,0 L30,0 L30,30 L0,30 L0,0 Z"></path>
    </defs>
    <g id="Page-1" stroke="none" stroke-width="1" fill="none" fill-rule="evenodd" sketch:type="MSPage">
        <g id="Artboard-2" sketch:type="MSArtboardGroup">
            <g id="Page-1" sketch:type="MSLayerGroup">
                <path d="M16.8168,29 C15.9898,29 15.3168,28.327 15.3168,27.5 C15.3168,26.673 15.9898,26 16.8168,26 C17.6438,26 18.3168,26.673 18.3168,27.5 C18.3168,28.327 17.6438,29 16.8168,29 M12.4998,15 C12.4998,13.622 13.6218,12.5 14.9998,12.5 C16.3788,12.5 17.4998,13.622 17.4998,15 C17.4998,16.378 16.3788,17.5 14.9998,17.5 C13.6218,17.5 12.4998,16.378 12.4998,15 M26.4998,1 C27.8788,1 28.9998,2.121 28.9998,3.5 C28.9998,4.878 27.8788,6 26.4998,6 C25.1218,6 23.9998,4.878 23.9998,3.5 C23.9998,2.121 25.1218,1 26.4998,1 M16.8618,25.005 L16.0618,18.318 C16.7658,18.093 17.3708,17.659 17.8018,17.078 L18.6308,17.485 L19.0718,16.587 L18.2768,16.196 C18.4138,15.822 18.4998,15.422 18.4998,15 C18.4998,14.114 18.1598,13.314 17.6168,12.697 L24.2288,6.143 C24.8418,6.67 25.6288,7 26.4998,7 C28.4328,7 29.9998,5.433 29.9998,3.5 C29.9998,1.567 28.4328,0 26.4998,0 C24.5668,0 22.9998,1.567 22.9998,3.5 C22.9998,4.199 23.2108,4.847 23.5638,5.394 L16.8558,12.043 C16.3168,11.704 15.6838,11.5 14.9998,11.5 C14.0488,11.5 13.1888,11.882 12.5578,12.498 L12.9348,12.117 L12.2238,11.413 L11.5208,12.124 L12.2318,12.828 L12.4948,12.561 C11.8818,13.192 11.4998,14.05 11.4998,15 C11.4998,15.669 11.6978,16.289 12.0238,16.821 L11.4188,17.348 L12.0748,18.102 L12.6638,17.589 C13.2838,18.149 14.0978,18.5 14.9998,18.5 C15.0258,18.5 15.0508,18.493 15.0768,18.492 L15.8768,25.186 C14.9628,25.558 14.3168,26.452 14.3168,27.5 C14.3168,28.881 15.4358,30 16.8168,30 C18.1978,30 19.3168,28.881 19.3168,27.5 C19.3168,26.135 18.2208,25.029 16.8618,25.005" id="Fill-1" fill="#000000" sketch:type="MSShapeGroup"></path>
                <path d="M2,4 C2.522,4 2.994,3.795 3.35,3.467 L3.064,3.756 L4.474,5.15 L5.177,4.439 L3.768,3.045 L3.474,3.342 C3.798,2.987 4,2.519 4,2 C4,0.895 3.105,0 2,0 C0.895,0 0,0.895 0,2 C0,3.105 0.895,4 2,4" id="Fill-3" fill="#000000" sketch:type="MSShapeGroup"></path>
                <path d="M28,19.125 C27.263,19.125 26.625,19.529 26.279,20.123 L25.355,19.67 L24.916,20.568 L26.002,21.101 C26.002,21.109 26,21.117 26,21.125 C26,22.23 26.895,23.125 28,23.125 C29.105,23.125 30,22.23 30,21.125 C30,20.02 29.105,19.125 28,19.125" id="Fill-5" fill="#000000" sketch:type="MSShapeGroup"></path>
                <path d="M7.291,6.5312 L5.882,5.1362 L5.179,5.8472 L6.588,7.2422 L7.291,6.5312 Z" id="Fill-7" fill="#000000" sketch:type="MSShapeGroup"></path>
                <path d="M9.4053,8.624 L7.9963,7.229 L7.2933,7.94 L8.7023,9.335 L9.4053,8.624 Z" id="Fill-9" fill="#000000" sketch:type="MSShapeGroup"></path>
                <path d="M11.5195,10.7158 L10.1105,9.3208 L9.4075,10.0318 L10.8165,11.4268 L11.5195,10.7158 Z" id="Fill-11" fill="#000000" sketch:type="MSShapeGroup"></path>
                <g id="Group-15">
                    <mask id="mask-2" sketch:name="Clip 14" fill="white">
                        <use xlink:href="#path-1"></use>
                    </mask>
                    <g id="Clip-14"></g>
                    <path d="M3.8799,23.918 L3.2599,24.458 C2.9149,24.176 2.4799,24 1.9999,24 C0.8959,24 -0.0001,24.895 -0.0001,26 C-0.0001,27.105 0.8959,28 1.9999,28 C3.1049,28 3.9999,27.105 3.9999,26 C3.9999,25.74 3.9469,25.493 3.8559,25.265 L4.5359,24.672 L3.8799,23.918 Z" id="Fill-13" fill="#000000" sketch:type="MSShapeGroup" mask="url(#mask-2)"></path>
                </g>
                <path d="M6.8955,21.29 L7.5515,22.044 L9.0595,20.73 L8.4035,19.977 L6.8955,21.29 Z" id="Fill-16" fill="#000000" sketch:type="MSShapeGroup"></path>
                <path d="M4.6338,23.2617 L5.2898,24.0157 L6.7978,22.7007 L6.1418,21.9477 L4.6338,23.2617 Z" id="Fill-18" fill="#000000" sketch:type="MSShapeGroup"></path>
                <path d="M9.1572,19.3193 L9.8132,20.0733 L11.3212,18.7583 L10.6652,18.0053 L9.1572,19.3193 Z" id="Fill-20" fill="#000000" sketch:type="MSShapeGroup"></path>
                <path d="M19.5293,17.9258 L21.3253,18.8068 L21.7643,17.9078 L19.9683,17.0278 L19.5293,17.9258 Z" id="Fill-22" fill="#000000" sketch:type="MSShapeGroup"></path>
                <path d="M22.2227,19.2471 L24.0187,20.1281 L24.4577,19.2291 L22.6617,18.3491 L22.2227,19.2471 Z" id="Fill-24" fill="#000000" sketch:type="MSShapeGroup"></path>
            </g>
        </g>
    </g>
</svg>