<?xml version="1.0" encoding="UTF-8" standalone="no"?>
<svg width="30px" height="20px" viewBox="0 0 30 20" version="1.1" xmlns="http://www.w3.org/2000/svg" xmlns:xlink="http://www.w3.org/1999/xlink" xmlns:sketch="http://www.bohemiancoding.com/sketch/ns">
    <!-- Generator: Sketch 3.4.2 (15857) - http://www.bohemiancoding.com/sketch -->
    <title>Page 1</title>
    <desc>Created with Sketch.</desc>
    <defs>
        <path id="path-1" d="M0,0.72345 L29.9844828,0.72345 L29.9844828,21 L0,21"></path>
        <path id="path-3" d="M0,0.72345 L29.9844828,0.72345 L29.9844828,21 L0,21"></path>
    </defs>
    <g id="Page-1" stroke="none" stroke-width="1" fill="none" fill-rule="evenodd" sketch:type="MSPage">
        <g id="Artboard-1" sketch:type="MSArtboardGroup" transform="translate(0.000000, -6.000000)">
            <g id="Page-1" sketch:type="MSLayerGroup" transform="translate(0.000000, 5.000000)">
                <path d="M10.5,2.01921957 C11.8677927,2.01921957 12.9807804,3.13220734 12.9807804,4.5 C12.9807804,5.86779266 11.8677927,6.98078043 10.5,6.98078043 C9.13220734,6.98078043 8.01921957,5.86779266 8.01921957,4.5 C8.01921957,3.13220734 9.13220734,2.01921957 10.5,2.01921957 M10.5,8 C12.4334595,8 14,6.43345952 14,4.5 C14,2.56654048 12.4334595,1 10.5,1 C8.56654048,1 7,2.56654048 7,4.5 C7,6.43345952 8.56654048,8 10.5,8" id="Fill-1" fill="#000000" sketch:type="MSShapeGroup"></path>
                <path d="M21,9 C22.657,9 24,7.657 24,6 C24,4.343 22.657,3 21,3 C19.343,3 18,4.343 18,6 C18,7.657 19.343,9 21,9" id="Fill-3" fill="#000000" sketch:type="MSShapeGroup"></path>
                <g id="Group-7">
                    <mask id="mask-2" sketch:name="Clip 6" fill="white">
                        <use xlink:href="#path-1"></use>
                    </mask>
                    <g id="Clip-6"></g>
                    <path d="M26.4793448,14.14833 C27.3348621,13.71363 28.7676207,12.98598 28.1758966,11.21778 C27.7403793,9.92418 26.2238276,9.95358 25.5503793,10.13838 C25.4924483,10.14468 19.6786552,10.84713 16.4448621,10.14468 C11.7814138,9.13458 8.31796552,8.79018 5.46382759,10.20348 C1.83796552,11.99688 -0.000310344828,15.62568 -0.000310344828,20.99013 L1.03417241,20.99013 C1.03417241,15.99213 2.63141379,12.77178 5.91589655,11.14743 C8.5052069,9.86643 11.7814138,10.20768 16.2286552,11.17263 C19.631069,11.91183 25.4293448,11.20938 25.7438276,11.16633 C25.7572759,11.16423 26.9634828,10.86288 27.1952069,11.55588 C27.4227931,12.23208 27.2831379,12.56493 26.016931,13.20858 C23.3924483,14.53683 14.8983103,13.55298 14.8124483,13.54248 C14.6624483,13.52673 14.496931,13.58028 14.3852069,13.69473 C14.2724483,13.81023 14.2186552,13.97088 14.2393448,14.13048 C14.2445172,14.16828 14.6727931,17.67108 13.9072759,19.94958 L7.34555172,19.94958 C7.12417241,19.49808 6.65141379,18.11313 7.12934483,15.16578 C7.15210345,15.02403 7.11693103,14.87808 7.03106897,14.76363 C6.94624138,14.64918 6.81796552,14.57463 6.67727586,14.55888 C6.61417241,14.55363 6.02968966,14.50323 5.41106897,15.05763 C4.3827931,15.97953 3.8427931,17.97348 3.80762069,20.98383 L4.84210345,20.99538 C4.88037931,17.72148 5.54037931,16.44888 5.97693103,15.96378 C5.59210345,19.47183 6.55417241,20.68878 6.67417241,20.82423 C6.77348276,20.93658 6.91313793,20.99958 7.06106897,20.99958 L14.2641724,20.99958 C14.4731379,20.99958 14.6614138,20.87253 14.741069,20.67828 C15.5396897,18.74103 15.431069,15.92283 15.3307241,14.65443 C17.4234828,14.86443 24.0038276,15.40203 26.4793448,14.14833" id="Fill-5" fill="#000000" sketch:type="MSShapeGroup" mask="url(#mask-2)"></path>
                </g>
                <g id="Group-10">
                    <mask id="mask-4" sketch:name="Clip 9" fill="white">
                        <use xlink:href="#path-3"></use>
                    </mask>
                    <g id="Clip-9"></g>
                    <path d="M28.793069,13.774425 C26.8099655,17.382225 16.6378966,16.224075 16.6378966,16.224075 C16.0347931,18.674775 16.6378966,20.990025 16.6378966,20.990025 L25.2478966,20.990025 C24.9985862,19.811925 25.2478966,18.061575 25.2478966,18.061575 C25.2478966,18.061575 26.7241034,18.937275 27.0685862,20.990025 L29.9734138,20.990025 C30.1192759,16.655625 28.793069,13.774425 28.793069,13.774425" id="Fill-8" fill="#000000" sketch:type="MSShapeGroup" mask="url(#mask-4)"></path>
                </g>
            </g>
        </g>
    </g>
</svg>