<?xml version="1.0" encoding="UTF-8" standalone="no"?>
<svg width="29px" height="26px" viewBox="0 0 29 26" version="1.1" xmlns="http://www.w3.org/2000/svg" xmlns:xlink="http://www.w3.org/1999/xlink" xmlns:sketch="http://www.bohemiancoding.com/sketch/ns">
    <!-- Generator: Sketch 3.4.2 (15857) - http://www.bohemiancoding.com/sketch -->
    <title>Group</title>
    <desc>Created with Sketch.</desc>
    <defs></defs>
    <g id="Page-1" stroke="none" stroke-width="1" fill="none" fill-rule="evenodd" sketch:type="MSPage">
        <g id="Artboard-2" sketch:type="MSArtboardGroup" transform="translate(-1.000000, -3.000000)">
            <g id="Group" sketch:type="MSLayerGroup" transform="translate(1.000000, 3.000000)">
                <g id="Path-+-Path" stroke="#000000" stroke-width="0.5" sketch:type="MSShapeGroup">
                    <path d="M26.2093043,0.360769231 L1.97664415,0.360769231 C1.04862301,0.360769231 0.293641026,1.16923077 0.293641026,2.16384615 L0.293641026,19.4715385 C0.293641026,20.4661538 1.04826401,21.2746154 1.97664415,21.2746154 L11.7372006,21.2746154 L11.7372006,22.7169231 L11.4004564,22.7169231 C10.8436437,22.7169231 10.3909418,23.2023077 10.3909418,23.7984615 C10.3909418,24.3946154 10.8440027,24.88 11.4004564,24.88 L16.785492,24.88 C17.3423047,24.88 17.7950067,24.3946154 17.7950067,23.7984615 C17.7950067,23.2023077 17.3419457,22.7169231 16.785492,22.7169231 L16.4487478,22.7169231 L16.4487478,21.2746154 L26.2093043,21.2746154 C27.1373254,21.2746154 27.8923074,20.4661538 27.8923074,19.4715385 L27.8923074,2.16384615 C27.8923074,1.16884615 27.1376844,0.360769231 26.2093043,0.360769231 L26.2093043,0.360769231 Z" id="Path"></path>
                    <path d="M26.2072821,1.80423077 L1.97651282,1.80423077 C1.7905641,1.80423077 1.63979487,1.96538462 1.63979487,2.165 L1.63979487,19.4711538 C1.63979487,19.6707692 1.79020513,19.8319231 1.97651282,19.8319231 L26.2072821,19.8319231 C26.3932308,19.8319231 26.544,19.6707692 26.544,19.4711538 L26.544,2.165 C26.544,1.96538462 26.3932308,1.80423077 26.2072821,1.80423077 L26.2072821,1.80423077 Z" id="Path"></path>
                </g>
                <ellipse id="Oval" fill="#000000" sketch:type="MSShapeGroup" cx="10.4665385" cy="11.8992308" rx="0.721153846" ry="1.08153846"></ellipse>
                <ellipse id="Oval" fill="#000000" sketch:type="MSShapeGroup" cx="17.6780769" cy="11.8992308" rx="0.721153846" ry="1.08153846"></ellipse>
                <path d="M14.0823077,16.9469231 C15.4738462,16.9469231 16.6061538,15.8146154 16.6061538,14.4230769 C16.6061538,14.2234615 16.445,14.0623077 16.2453846,14.0623077 C16.0457692,14.0623077 15.8846154,14.2234615 15.8846154,14.4230769 C15.8846154,15.4176923 15.0761538,16.2261538 14.0815385,16.2261538 C13.0869231,16.2261538 12.2784615,15.4176923 12.2784615,14.4230769 C12.2784615,14.2234615 12.1173077,14.0623077 11.9176923,14.0623077 C11.7180769,14.0623077 11.5569231,14.2234615 11.5569231,14.4230769 C11.5584615,15.8146154 12.6907692,16.9469231 14.0823077,16.9469231 L14.0823077,16.9469231 Z" id="Shape" fill="#000000" sketch:type="MSShapeGroup"></path>
            </g>
        </g>
    </g>
</svg>