<?xml version="1.0" encoding="UTF-8" standalone="no"?>
<svg width="20px" height="30px" viewBox="0 0 20 30" version="1.1" xmlns="http://www.w3.org/2000/svg" xmlns:xlink="http://www.w3.org/1999/xlink" xmlns:sketch="http://www.bohemiancoding.com/sketch/ns">
    <!-- Generator: Sketch 3.4.2 (15857) - http://www.bohemiancoding.com/sketch -->
    <title>culture</title>
    <desc>Created with Sketch.</desc>
    <defs></defs>
    <g id="Page-1" stroke="none" stroke-width="1" fill="none" fill-rule="evenodd" sketch:type="MSPage">
        <g id="Artboard-1" sketch:type="MSArtboardGroup" transform="translate(-5.000000, 0.000000)" fill="#000000">
            <g id="culture" sketch:type="MSLayerGroup" transform="translate(5.000000, 0.000000)">
                <path d="M9.9999,0.0003 L6.9099,5.9253 L-0.0001,6.8753 L5.0009,11.4883 L3.8199,18.0003 L9.9999,14.9253 L16.1799,18.0003 L14.9999,11.4883 L19.9999,6.8753 L13.0909,5.9253 L9.9999,0.0003 Z M5.9839,11.6663 L6.0819,11.1253 L5.6779,10.7523 L2.2359,7.5773 L7.0459,6.9163 L7.5569,6.8453 L7.7969,6.3873 L9.9999,2.1623 L12.2029,6.3873 L12.4429,6.8453 L12.9539,6.9163 L17.7639,7.5773 L14.3219,10.7523 L13.9179,11.1253 L14.0159,11.6663 L14.8409,16.2163 L10.4459,14.0293 L9.9999,13.8083 L9.5549,14.0293 L5.1589,16.2163 L5.9839,11.6663 Z" id="Fill-1" sketch:type="MSShapeGroup"></path>
                <path d="M9.5004,15.9996 L9.5004,20.9996 L3.9994,20.9996 L3.9994,26.0006 L0.0004,26.0006 L0.0004,26.6666 L0.0004,29.9996 L19.5834,29.9996 L19.9994,29.9996 L19.9994,26.0006 L16.0004,26.0006 L16.0004,20.9996 L10.5004,20.9996 L10.5004,15.9996 L9.5004,15.9996 Z M5.0004,21.9996 L15.0004,21.9996 L15.0004,26.0006 L5.0004,26.0006 L5.0004,21.9996 Z" id="Fill-2" sketch:type="MSShapeGroup"></path>
            </g>
        </g>
    </g>
</svg>