<?xml version="1.0" encoding="UTF-8" standalone="no"?>
<svg width="30px" height="30px" viewBox="0 0 30 30" version="1.1" xmlns="http://www.w3.org/2000/svg" xmlns:xlink="http://www.w3.org/1999/xlink" xmlns:sketch="http://www.bohemiancoding.com/sketch/ns">
    <!-- Generator: Sketch 3.4.2 (15857) - http://www.bohemiancoding.com/sketch -->
    <title>Artboard 2</title>
    <desc>Created with Sketch.</desc>
    <defs></defs>
    <g id="Page-1" stroke="none" stroke-width="1" fill="none" fill-rule="evenodd" sketch:type="MSPage">
        <g id="Artboard-2" sketch:type="MSArtboardGroup">
            <g id="Page-1" sketch:type="MSLayerGroup" transform="translate(5.000000, 0.000000)">
                <path d="M9.9999,0.0003 L7.2189,5.9253 L0.9999,6.8753 L5.4999,11.4883 L4.4379,18.0003 L9.9999,14.9253 L15.5619,18.0003 L14.4999,11.4883 L18.9999,6.8753 L12.7809,5.9253 L9.9999,0.0003 Z M5.9929,11.5683 L6.0349,11.3183 L5.8579,11.1383 L2.0379,7.2223 L7.2949,6.4193 L7.5579,6.3793 L7.6719,6.1373 L9.9999,1.1763 L12.3279,6.1373 L12.4419,6.3793 L12.7049,6.4193 L17.9619,7.2223 L14.1419,11.1383 L13.9659,11.3183 L14.0069,11.5683 L14.9029,17.0643 L10.2419,14.4873 L9.9999,14.3533 L9.7579,14.4873 L5.0969,17.0643 L5.9929,11.5683 Z" id="Fill-1" fill="#000000" sketch:type="MSShapeGroup"></path>
                <path d="M10,15.6667 L10,20.6877" id="Stroke-2" stroke="#000000" stroke-width="0.5" sketch:type="MSShapeGroup"></path>
                <path d="M16,20.5 L10,20.5 L4,20.5 L4,26.5 L16,26.5 L16,20.5 Z M15.5,21 L15.5,26 L4.5,26 L4.5,21 L10,21 L15.5,21 Z" id="Fill-3" fill="#000000" sketch:type="MSShapeGroup"></path>
                <path d="M0,30 L20,30 L20,26 L0,26 L0,30 Z M0.5,26.5 L19.5,26.5 L19.5,29.5 L0.5,29.5 L0.5,26.5 Z" id="Fill-4" fill="#000000" sketch:type="MSShapeGroup"></path>
            </g>
        </g>
    </g>
</svg>