<?xml version="1.0" encoding="UTF-8" standalone="no"?>
<svg width="30px" height="30px" viewBox="0 0 30 30" version="1.1" xmlns="http://www.w3.org/2000/svg" xmlns:xlink="http://www.w3.org/1999/xlink" xmlns:sketch="http://www.bohemiancoding.com/sketch/ns">
    <!-- Generator: Sketch 3.4.2 (15857) - http://www.bohemiancoding.com/sketch -->
    <title>logo_symbol</title>
    <desc>Created with Sketch.</desc>
    <defs>
        <path id="path-1" d="M0,0 L30,0 L30,30 L0,30"></path>
    </defs>
    <g id="Page-1" stroke="none" stroke-width="1" fill="none" fill-rule="evenodd" sketch:type="MSPage">
        <g id="Artboard-1" sketch:type="MSArtboardGroup">
            <g id="logo_symbol" sketch:type="MSLayerGroup">
                <mask id="mask-2" sketch:name="Clip 2" fill="white">
                    <use xlink:href="#path-1"></use>
                </mask>
                <g id="Clip-2"></g>
                <path d="M19.9875,4.1094 L22.1185,7.0854 C25.7265,9.1234 28.1255,12.6514 28.1255,16.6664 C28.1255,20.9484 25.4025,24.6834 21.3895,26.6404 L19.6875,7.6194 L15.0005,0.0004 L10.3125,7.6194 L8.6105,26.6404 C4.5975,24.6834 1.8755,20.9484 1.8755,16.6664 C1.8755,12.6514 4.2735,9.1234 7.8825,7.0854 L10.0125,4.1094 C4.1845,5.9384 0.0005,10.8604 0.0005,16.6664 C0.0005,24.0304 6.7155,30.0004 15.0005,30.0004 C23.2845,30.0004 30.0005,24.0304 30.0005,16.6664 C30.0005,10.8604 25.8155,5.9384 19.9875,4.1094" id="Fill-1" fill="#2F2F2F" sketch:type="MSShapeGroup" mask="url(#mask-2)"></path>
            </g>
        </g>
    </g>
</svg>