<?xml version="1.0" encoding="UTF-8" standalone="no"?>
<svg width="92px" height="64px" viewBox="0 0 92 64" version="1.1" xmlns="http://www.w3.org/2000/svg" xmlns:xlink="http://www.w3.org/1999/xlink" xmlns:sketch="http://www.bohemiancoding.com/sketch/ns">
    <!-- Generator: Sketch 3.4.1 (15681) - http://www.bohemiancoding.com/sketch -->
    <title>mail</title>
    <desc>Created with Sketch.</desc>
    <defs></defs>
    <g id="Page-1" stroke="none" stroke-width="1" fill="none" fill-rule="evenodd" sketch:type="MSPage">
        <g id="mail" sketch:type="MSLayerGroup" fill="#FFFFFF">
            <g id="Group" sketch:type="MSShapeGroup">
                <path d="M82.348,64 L9.652,64 C4.328,64 0,59.512 0,54 L0,10 C0,4.488 4.332,0 9.652,0 L82.348,0 C87.672,0 92,4.488 92,10 L92,54 C92,59.512 87.668,64 82.348,64 L82.348,64 Z M9.652,4 C6.536,4 4,6.692 4,10 L4,54 C4,57.308 6.536,60 9.652,60 L82.348,60 C85.464,60 88,57.308 88,54 L88,10 C88,6.692 85.464,4 82.348,4 L9.652,4 L9.652,4 Z" id="Shape"></path>
                <path d="M46,44.12 C42.08,44.12 38.416,42.404 35.692,39.312 L11.94,12.16 C11.212,11.328 11.296,10.068 12.128,9.336 C12.956,8.608 14.22,8.688 14.952,9.524 L38.7,36.672 C42.608,41.108 49.392,41.112 53.304,36.668 L77.008,9.56 C77.736,8.724 79,8.644 79.832,9.372 C80.664,10.1 80.748,11.364 80.02,12.196 L56.312,39.308 C53.584,42.416 49.92,44.12 46,44.12 L46,44.12 Z" id="Shape"></path>
                <path d="M13.448,56.86 C12.92,56.86 12.396,56.652 12,56.244 C11.24,55.444 11.268,54.176 12.068,53.408 L32.948,33.48 C33.748,32.716 35.012,32.744 35.776,33.544 C36.536,34.344 36.508,35.612 35.708,36.38 L14.828,56.312 C14.44,56.676 13.944,56.86 13.448,56.86 L13.448,56.86 Z" id="Shape"></path>
                <path d="M78.564,56.86 C78.072,56.86 77.572,56.676 77.184,56.308 L56.292,36.376 C55.492,35.612 55.464,34.34 56.224,33.54 C56.98,32.744 58.256,32.712 59.052,33.476 L79.944,53.404 C80.74,54.168 80.772,55.44 80.012,56.24 C79.616,56.652 79.092,56.86 78.564,56.86 L78.564,56.86 Z" id="Shape"></path>
            </g>
        </g>
    </g>
</svg>