<?xml version="1.0" encoding="UTF-8" standalone="no"?>
<svg width="30px" height="22px" viewBox="0 0 30 22" version="1.1" xmlns="http://www.w3.org/2000/svg" xmlns:xlink="http://www.w3.org/1999/xlink" xmlns:sketch="http://www.bohemiancoding.com/sketch/ns">
    <!-- Generator: Sketch 3.4.2 (15857) - http://www.bohemiancoding.com/sketch -->
    <title>partnership</title>
    <desc>Created with Sketch.</desc>
    <defs>
        <path id="path-1" d="M0,0.034 L29.925,0.034 L29.925,22 L0,22"></path>
        <path id="path-3" d="M0,0.034 L29.925,0.034 L29.925,22 L0,22"></path>
    </defs>
    <g id="Page-1" stroke="none" stroke-width="1" fill="none" fill-rule="evenodd" sketch:type="MSPage">
        <g id="Artboard-1" sketch:type="MSArtboardGroup" transform="translate(0.000000, -4.000000)">
            <g id="partnership" sketch:type="MSLayerGroup" transform="translate(0.000000, 4.000000)">
                <path d="M1.8074,13.1504 L1.0884,12.7974 C1.3994,11.5774 2.2764,7.7354 2.4874,2.5604 L3.5104,3.0044 C3.5024,4.4114 3.3744,10.0944 1.8074,13.1504 M6.5464,14.0654 C6.6894,13.8294 6.6124,13.5214 6.3744,13.3794 L5.1414,12.6404 C5.0794,12.6034 5.0104,12.5804 4.9394,12.5724 L3.2124,12.3844 C4.0284,10.0954 4.3344,7.1874 4.4464,5.1444 L6.9834,6.3714 C7.0514,6.4044 7.1254,6.4214 7.2014,6.4214 C7.2144,6.4214 7.2294,6.4204 7.2434,6.4194 L11.6804,6.0444 C11.9554,6.0204 12.1604,5.7794 12.1364,5.5044 C12.1134,5.2274 11.8604,5.0264 11.5964,5.0474 L7.2954,5.4114 L4.4934,4.0574 C4.5174,3.2674 4.5104,2.7474 4.5094,2.6694 C4.5064,2.4724 4.3884,2.2964 4.2084,2.2174 L2.2114,1.3494 C2.0604,1.2844 1.8854,1.2974 1.7444,1.3864 C1.6044,1.4754 1.5174,1.6294 1.5124,1.7954 C1.3344,8.2354 0.0324,12.8814 0.0194,12.9284 C-0.0466,13.1614 0.0624,13.4074 0.2794,13.5144 L1.7914,14.2574 C1.8634,14.2924 1.9384,14.3084 2.0124,14.3084 C2.1824,14.3084 2.3464,14.2214 2.4404,14.0684 C2.5794,13.8394 2.7084,13.5924 2.8294,13.3344 C2.8524,13.3404 2.8724,13.3524 2.8964,13.3554 L4.7214,13.5544 L5.8614,14.2374 C5.9414,14.2864 6.0304,14.3084 6.1184,14.3084 C6.2874,14.3084 6.4534,14.2214 6.5464,14.0654" id="Fill-1" fill="#000000" sketch:type="MSShapeGroup"></path>
                <g id="Group-5">
                    <mask id="mask-2" sketch:name="Clip 4" fill="white">
                        <use xlink:href="#path-1"></use>
                    </mask>
                    <g id="Clip-4"></g>
                    <path d="M29.8845,11.3086 C29.8655,11.2646 27.9805,6.8306 26.9795,0.4566 C26.9525,0.2926 26.8475,0.1526 26.6965,0.0806 C26.5475,0.0106 26.3715,0.0196 26.2285,0.1056 L24.3595,1.2226 C24.1915,1.3236 24.0975,1.5126 24.1185,1.7066 C24.1305,1.8086 24.2295,2.6516 24.4425,3.8516 C24.4415,3.8536 24.4395,3.8546 24.4385,3.8566 C22.5595,6.7416 20.1805,6.1526 20.0645,6.1216 L15.5015,5.0586 C15.3955,5.0336 15.2815,5.0456 15.1815,5.0906 L11.6185,6.7156 C11.4405,6.7966 11.3255,6.9746 11.3255,7.1706 C11.3255,8.3656 10.5485,9.4986 10.5405,9.5096 C10.5185,9.5426 10.4985,9.5796 10.4845,9.6166 C10.4095,9.8096 10.0615,10.8056 10.5025,11.4486 C10.6505,11.6636 10.9435,11.9206 11.4925,11.9206 C13.4075,11.9206 14.4165,10.6126 14.7995,9.6536 L17.2425,9.9406 C17.5115,9.9806 17.7655,9.7766 17.7975,9.5026 C17.8305,9.2286 17.6345,8.9806 17.3605,8.9486 L14.5095,8.6126 C14.2615,8.5776 14.0255,8.7456 13.9645,8.9926 C13.9455,9.0716 13.4715,10.9206 11.4925,10.9206 C11.4255,10.9206 11.3465,10.9116 11.3265,10.8816 C11.2395,10.7556 11.2935,10.3316 11.4005,10.0236 C11.5695,9.7656 12.2085,8.7186 12.3125,7.4986 L15.4415,6.0716 L19.8185,7.0906 C19.8675,7.1036 20.3615,7.2296 21.0785,7.1736 C22.4155,8.0086 22.8785,9.5286 22.8825,9.5436 C22.9475,9.7616 23.1465,9.9036 23.3635,9.9036 C23.4085,9.9036 23.4555,9.8976 23.5025,9.8836 C23.7675,9.8066 23.9195,9.5306 23.8435,9.2656 C23.8245,9.2006 23.4325,7.9236 22.3355,6.8956 C23.0865,6.6226 23.9155,6.1056 24.6985,5.1726 C25.0655,6.9166 25.6305,9.0156 26.4465,10.7616 C25.6755,11.4336 24.8915,11.4236 24.8535,11.4216 C24.6245,11.3986 24.4135,11.5556 24.3475,11.7766 C23.9385,13.1286 23.0925,13.2926 22.9855,13.3076 C21.8105,11.9276 20.2925,10.1256 20.2705,10.0986 C20.0915,9.8876 19.7775,9.8616 19.5655,10.0376 C19.3545,10.2156 19.3265,10.5316 19.5045,10.7436 C19.6415,10.9046 22.8235,14.6836 23.4825,15.4166 C24.0135,16.0986 24.0765,16.4796 24.0295,16.5976 C24.0015,16.6656 23.8885,16.7046 23.8005,16.7176 C22.9135,16.8346 20.2555,14.2876 18.3125,11.8446 C18.1405,11.6276 17.8235,11.5946 17.6095,11.7646 C17.3935,11.9366 17.3575,12.2506 17.5295,12.4676 C18.1555,13.2566 20.9895,16.7176 22.9995,17.5406 C22.7865,17.8776 22.5355,18.0826 22.2465,18.1416 C21.5835,18.2756 20.7725,17.7036 20.5135,17.4696 L16.4935,13.8616 C16.2885,13.6766 15.9725,13.6926 15.7875,13.8996 C15.6035,14.1046 15.6205,14.4206 15.8255,14.6056 L19.8435,18.2116 C19.8705,18.2366 20.2155,18.5396 20.7145,18.7966 C20.4735,19.2166 20.2025,19.4696 19.9045,19.5286 C19.4465,19.6206 18.9295,19.2566 18.7625,19.1006 L15.1635,15.8636 C14.9605,15.6796 14.6435,15.6956 14.4575,15.9016 C14.2735,16.1066 14.2895,16.4226 14.4955,16.6076 L18.0835,19.8346 C18.0965,19.8476 18.2095,19.9526 18.3935,20.0786 C18.3835,20.0916 18.3685,20.0996 18.3605,20.1146 C18.1705,20.4246 17.9445,20.5996 17.6685,20.6476 C17.1135,20.7476 16.4305,20.3186 16.2145,20.1456 C16.0005,19.9746 15.6845,20.0086 15.5125,20.2216 C15.3395,20.4366 15.3715,20.7496 15.5855,20.9236 C15.6885,21.0066 16.5275,21.6626 17.4935,21.6626 C17.6065,21.6626 17.7205,21.6536 17.8355,21.6336 C18.3965,21.5376 18.8725,21.1936 19.2135,20.6376 C19.2445,20.5866 19.2605,20.5326 19.2715,20.4776 C19.4235,20.5146 19.5825,20.5426 19.7505,20.5426 C19.8605,20.5426 19.9735,20.5336 20.0885,20.5106 C20.7335,20.3876 21.2595,19.9106 21.6665,19.1266 C21.7895,19.1466 21.9145,19.1616 22.0425,19.1616 C22.1745,19.1616 22.3075,19.1496 22.4415,19.1216 C23.1355,18.9826 23.6805,18.4956 24.0655,17.6756 C24.4815,17.5796 24.8135,17.3296 24.9565,16.9716 C25.1885,16.3976 24.9615,15.6846 24.2655,14.7916 C24.2615,14.7866 24.2545,14.7846 24.2495,14.7786 C24.2465,14.7746 24.2455,14.7686 24.2405,14.7636 C24.1305,14.6416 23.9305,14.4106 23.6795,14.1186 C24.1545,13.9026 24.7885,13.4356 25.1905,12.3986 C25.5935,12.3476 26.2525,12.1636 26.9115,11.6596 C27.1365,12.0536 27.3725,12.4256 27.6295,12.7476 C27.7275,12.8706 27.8725,12.9366 28.0205,12.9366 C28.1155,12.9366 28.2115,12.9096 28.2965,12.8536 L29.7015,11.9226 C29.9035,11.7886 29.9805,11.5306 29.8845,11.3086" id="Fill-3" fill="#000000" sketch:type="MSShapeGroup" mask="url(#mask-2)"></path>
                </g>
                <g id="Group-8">
                    <mask id="mask-4" sketch:name="Clip 7" fill="white">
                        <use xlink:href="#path-3"></use>
                    </mask>
                    <g id="Clip-7"></g>
                    <path d="M7.1804,15.7793 L7.9334,15.0273 C8.0584,14.9023 8.2244,14.8333 8.4014,14.8333 C8.5774,14.8333 8.7434,14.9023 8.8684,15.0273 C9.1264,15.2853 9.1264,15.7053 8.8684,15.9633 L8.1164,16.7153 C7.8664,16.9653 7.4304,16.9653 7.1804,16.7153 C6.9224,16.4573 6.9224,16.0373 7.1804,15.7793 M14.1304,18.3673 C13.9334,18.5503 13.9234,18.8653 14.1014,19.0683 C14.1704,19.1473 14.2934,19.3723 13.9674,19.7383 L12.8114,20.8953 C12.6444,21.0603 12.3274,21.0253 12.1204,20.8173 C12.0034,20.7003 11.9364,20.5493 11.9364,20.4003 C11.9364,20.3243 11.9544,20.2143 12.0424,20.1263 L13.1624,18.9993 L13.1634,18.9983 C13.7744,18.3853 13.7844,17.4003 13.1854,16.8013 C12.9904,16.6063 12.6734,16.6063 12.4784,16.8013 C12.2834,16.9973 12.2834,17.3133 12.4784,17.5083 C12.6884,17.7183 12.6774,18.0703 12.4544,18.2933 L11.1264,19.6213 C10.9034,19.8423 10.5524,19.8533 10.3424,19.6443 C10.1364,19.4373 10.1454,19.0923 10.3604,18.8693 L11.4784,17.7503 C11.7694,17.4603 11.9304,17.0723 11.9304,16.6603 C11.9304,16.2473 11.7694,15.8583 11.4774,15.5663 C11.2824,15.3713 10.9654,15.3713 10.7704,15.5663 C10.5754,15.7613 10.5754,16.0783 10.7704,16.2733 C10.8734,16.3773 10.9304,16.5133 10.9304,16.6603 C10.9304,16.8043 10.8734,16.9403 10.7714,17.0433 L10.6104,17.2043 L10.6104,17.2043 L9.6594,18.1533 C9.6544,18.1583 9.6514,18.1643 9.6464,18.1693 L9.4774,18.3383 C9.2654,18.5503 8.9194,18.5483 8.7074,18.3363 C8.4954,18.1233 8.4944,17.7783 8.7134,17.5593 L9.3994,16.8463 L9.3994,16.8463 L9.5764,16.6703 C10.2234,16.0213 10.2234,14.9673 9.5764,14.3203 C8.9474,13.6913 7.8534,13.6923 7.2264,14.3203 L6.4734,15.0723 C5.8264,15.7203 5.8264,16.7743 6.4734,17.4223 C6.7644,17.7133 7.1454,17.8763 7.5524,17.9003 C7.5524,17.9173 7.5474,17.9333 7.5474,17.9513 C7.5484,18.3633 7.7084,18.7513 8.0004,19.0433 C8.2924,19.3353 8.6804,19.4963 9.0924,19.4963 L9.0944,19.4963 C9.1344,19.4963 9.1724,19.4873 9.2124,19.4843 C9.2554,19.8033 9.3934,20.1093 9.6354,20.3513 C9.9314,20.6473 10.3214,20.7953 10.7124,20.7953 C10.8044,20.7953 10.8964,20.7843 10.9874,20.7683 C11.0584,21.0483 11.2024,21.3133 11.4134,21.5243 C11.7294,21.8403 12.1394,22.0003 12.5374,22.0003 C12.9004,22.0003 13.2524,21.8683 13.5184,21.6023 L14.6934,20.4253 C15.5064,19.5173 15.1314,18.6853 14.8204,18.3733 C14.6304,18.1813 14.3274,18.1813 14.1304,18.3673" id="Fill-6" fill="#000000" sketch:type="MSShapeGroup" mask="url(#mask-4)"></path>
                </g>
            </g>
        </g>
    </g>
</svg>