<?xml version="1.0" encoding="UTF-8" standalone="no"?>
<svg width="26px" height="30px" viewBox="0 0 26 30" version="1.1" xmlns="http://www.w3.org/2000/svg" xmlns:xlink="http://www.w3.org/1999/xlink" xmlns:sketch="http://www.bohemiancoding.com/sketch/ns">
    <!-- Generator: Sketch 3.4.2 (15857) - http://www.bohemiancoding.com/sketch -->
    <title>partner-companies</title>
    <desc>Created with Sketch.</desc>
    <defs>
        <path id="path-1" d="M0,0 L26,0 L26,30 L0,30 L0,0 Z"></path>
    </defs>
    <g id="Page-1" stroke="none" stroke-width="1" fill="none" fill-rule="evenodd" sketch:type="MSPage">
        <g id="Artboard-1" sketch:type="MSArtboardGroup" transform="translate(-2.000000, 0.000000)">
            <g id="partner-companies" sketch:type="MSLayerGroup" transform="translate(2.000000, 0.000000)">
                <g id="Group-3">
                    <mask id="mask-2" sketch:name="Clip 2" fill="white">
                        <use xlink:href="#path-1"></use>
                    </mask>
                    <g id="Clip-2"></g>
                    <path d="M25,16.1563 L14,16.1563 L14,15.7333 C16.12,14.1353 17.5,11.6043 17.5,8.7503 C17.5,7.3833 17.176,6.0933 16.614,4.9393 L18.391,3.0973 L25,9.7073 L25,16.1563 Z M25,20.0003 L14,20.0003 L14,17.1563 L25,17.1563 L25,20.0003 Z M10.002,29.0003 L10.002,25.0003 L6.002,25.0003 L6.002,29.0003 L3,29.0003 L3,21.0003 L7,21.0003 L7,20.0003 L3,20.0003 L3,19.0003 L8,19.0003 L8,18.0003 L3,18.0003 L3,17.0003 L5.862,17.0003 C6.768,17.3183 7.737,17.5003 8.75,17.5003 C10.292,17.5003 11.74,17.0953 13,16.3923 L13,29.0003 L10.002,29.0003 Z M9.002,29.0003 L7.002,29.0003 L7.002,26.0003 L9.002,26.0003 L9.002,29.0003 Z M3,15.3293 C3.273,15.5683 3.555,15.7963 3.856,16.0003 L3,16.0003 L3,15.3293 Z M8.75,0.5003 C13.306,0.5003 17,4.1933 17,8.7503 C17,13.3063 13.306,17.0003 8.75,17.0003 C4.194,17.0003 0.5,13.3063 0.5,8.7503 C0.5,4.1933 4.194,0.5003 8.75,0.5003 L8.75,0.5003 Z M19,29.0003 L18,29.0003 L17,29.0003 L17,26.0003 L19,26.0003 L19,29.0003 Z M18.891,2.1833 L18.891,0.0003 L17.891,0.0003 L17.891,2.1833 L16.107,4.0313 C14.549,1.6113 11.837,0.0003 8.75,0.0003 C3.925,0.0003 0,3.9253 0,8.7503 C0,10.8603 0.751,12.7993 2,14.3123 L2,30.0003 L6.002,30.0003 L10.002,30.0003 L14,30.0003 L14,21.0003 L25,21.0003 L25,29.0003 L20,29.0003 L20,25.0003 L16,25.0003 L16,30.0003 L18,30.0003 L20,30.0003 L26,30.0003 L26,9.2933 L18.891,2.1833 Z" id="Fill-1" fill="#000000" sketch:type="MSShapeGroup" mask="url(#mask-2)"></path>
                </g>
                <path d="M3.132,5.9971 L3.572,6.1881 C3.569,6.7931 3.514,9.2391 2.84,10.5541 L2.53,10.4021 C2.664,9.8771 3.041,8.2241 3.132,5.9971 L3.132,5.9971 Z M2.833,11.0301 C2.864,11.0451 2.896,11.0521 2.928,11.0521 C3.001,11.0521 3.072,11.0151 3.112,10.9491 C3.172,10.8501 3.227,10.7441 3.279,10.6331 C3.289,10.6351 3.298,10.6411 3.308,10.6421 L4.093,10.7281 L4.584,11.0211 C4.618,11.0421 4.656,11.0521 4.694,11.0521 C4.767,11.0521 4.838,11.0151 4.879,10.9471 C4.94,10.8461 4.907,10.7131 4.805,10.6521 L4.274,10.3341 C4.248,10.3181 4.218,10.3081 4.187,10.3051 L3.444,10.2241 C3.795,9.2391 3.927,7.9881 3.975,7.1091 L5.067,7.6371 C5.096,7.6511 5.128,7.6581 5.16,7.6581 C5.166,7.6581 5.172,7.6581 5.178,7.6571 L7.088,7.4961 C7.206,7.4861 7.294,7.3821 7.284,7.2631 C7.274,7.1451 7.165,7.0581 7.052,7.0671 L5.201,7.2241 L3.995,6.6411 C4.005,6.3011 4.003,6.0771 4.002,6.0441 C4.001,5.9591 3.95,5.8841 3.873,5.8501 L3.014,5.4761 C2.948,5.4481 2.873,5.4541 2.812,5.4921 C2.752,5.5301 2.715,5.5961 2.713,5.6681 C2.636,8.4391 2.076,10.4381 2.07,10.4581 C2.042,10.5581 2.089,10.6641 2.182,10.7101 L2.833,11.0301 Z" id="Fill-4" fill="#000000" sketch:type="MSShapeGroup"></path>
                <path d="M6.9352,7.9808 C6.9352,8.4948 6.6012,8.9828 6.5972,8.9868 C6.5882,9.0018 6.5792,9.0168 6.5732,9.0328 C6.5412,9.1158 6.3912,9.5448 6.5812,9.8208 C6.6442,9.9138 6.7702,10.0248 7.0072,10.0248 C7.8312,10.0248 8.2652,9.4618 8.4302,9.0488 L9.4812,9.1728 C9.5962,9.1898 9.7062,9.1018 9.7202,8.9838 C9.7342,8.8658 9.6492,8.7598 9.5312,8.7458 L8.3052,8.6008 C8.1982,8.5858 8.0962,8.6588 8.0702,8.7648 C8.0622,8.7988 7.8582,9.5948 7.0072,9.5948 C6.9782,9.5948 6.9442,9.5898 6.9352,9.5778 C6.8982,9.5228 6.9212,9.3408 6.9672,9.2078 C7.0402,9.0968 7.3152,8.6468 7.3592,8.1218 L8.7062,7.5078 L10.5892,7.9468 C10.6102,7.9518 10.8232,8.0058 11.1312,7.9818 C11.7072,8.3408 11.9062,8.9948 11.9082,9.0018 C11.9352,9.0958 12.0212,9.1568 12.1142,9.1568 C12.1342,9.1568 12.1542,9.1538 12.1742,9.1478 C12.2882,9.1148 12.3542,8.9958 12.3212,8.8818 C12.3132,8.8538 12.1442,8.3048 11.6722,7.8628 C11.9952,7.7448 12.3522,7.5218 12.6892,7.1208 C12.8472,7.8708 13.0902,8.7748 13.4412,9.5258 C13.1092,9.8148 12.7722,9.8108 12.7552,9.8098 C12.6572,9.7998 12.5662,9.8678 12.5382,9.9628 C12.3622,10.5438 11.9982,10.6148 11.9522,10.6218 C11.4462,10.0278 10.7932,9.2518 10.7842,9.2408 C10.7072,9.1498 10.5712,9.1388 10.4802,9.2148 C10.3892,9.2908 10.3782,9.4268 10.4542,9.5178 C10.5132,9.5878 11.8822,11.2128 12.1662,11.5288 C12.3942,11.8218 12.4212,11.9858 12.4012,12.0368 C12.3892,12.0668 12.3402,12.0828 12.3032,12.0888 C11.9212,12.1388 10.7772,11.0428 9.9412,9.9918 C9.8672,9.8988 9.7312,9.8838 9.6392,9.9578 C9.5462,10.0318 9.5302,10.1668 9.6042,10.2598 C9.8742,10.5988 11.0932,12.0878 11.9582,12.4428 C11.8662,12.5878 11.7582,12.6758 11.6342,12.7008 C11.3492,12.7588 11.0002,12.5128 10.8882,12.4118 L9.1592,10.8598 C9.0702,10.7798 8.9342,10.7868 8.8552,10.8758 C8.7752,10.9638 8.7832,11.1008 8.8712,11.1798 L10.6002,12.7318 C10.6112,12.7418 10.7602,12.8728 10.9752,12.9828 C10.8712,13.1638 10.7552,13.2728 10.6262,13.2978 C10.4292,13.3378 10.2072,13.1808 10.1352,13.1138 L8.5862,11.7208 C8.4992,11.6418 8.3622,11.6488 8.2832,11.7368 C8.2032,11.8258 8.2102,11.9618 8.2992,12.0408 L9.8432,13.4298 C9.8482,13.4348 9.8972,13.4808 9.9762,13.5348 C9.9722,13.5398 9.9662,13.5438 9.9622,13.5498 C9.8802,13.6838 9.7832,13.7588 9.6642,13.7798 C9.4252,13.8228 9.1312,13.6378 9.0392,13.5638 C8.9462,13.4898 8.8102,13.5048 8.7362,13.5958 C8.6622,13.6888 8.6762,13.8238 8.7682,13.8988 C8.8122,13.9338 9.1732,14.2158 9.5892,14.2158 C9.6372,14.2158 9.6862,14.2118 9.7362,14.2038 C9.9772,14.1618 10.1822,14.0148 10.3292,13.7748 C10.3422,13.7538 10.3492,13.7298 10.3542,13.7058 C10.4192,13.7228 10.4882,13.7348 10.5602,13.7348 C10.6072,13.7348 10.6562,13.7298 10.7052,13.7208 C10.9832,13.6678 11.2092,13.4628 11.3842,13.1248 C11.4372,13.1338 11.4912,13.1398 11.5462,13.1398 C11.6032,13.1398 11.6602,13.1348 11.7182,13.1228 C12.0162,13.0628 12.2512,12.8538 12.4172,12.5008 C12.5962,12.4598 12.7382,12.3518 12.8002,12.1978 C12.9002,11.9508 12.8022,11.6438 12.5032,11.2598 C12.5012,11.2578 12.4982,11.2568 12.4962,11.2538 C12.4942,11.2518 12.4942,11.2498 12.4922,11.2478 C12.4442,11.1948 12.3582,11.0958 12.2502,10.9708 C12.4552,10.8768 12.7282,10.6758 12.9002,10.2298 C13.0742,10.2078 13.3582,10.1288 13.6412,9.9118 C13.7382,10.0818 13.8392,10.2418 13.9502,10.3808 C13.9922,10.4338 14.0552,10.4618 14.1182,10.4618 C14.1592,10.4618 14.2012,10.4498 14.2372,10.4258 L14.8422,10.0258 C14.9282,9.9678 14.9612,9.8568 14.9202,9.7608 C14.9122,9.7418 14.1012,7.8348 13.6702,5.0918 C13.6592,5.0218 13.6142,4.9608 13.5492,4.9298 C13.4852,4.8998 13.4092,4.9038 13.3472,4.9408 L12.5432,5.4218 C12.4712,5.4648 12.4302,5.5458 12.4402,5.6298 C12.4452,5.6738 12.4872,6.0368 12.5792,6.5528 C12.5782,6.5538 12.5772,6.5538 12.5772,6.5548 C11.7682,7.7958 10.7452,7.5428 10.6952,7.5288 L8.7322,7.0718 C8.6862,7.0608 8.6372,7.0668 8.5942,7.0858 L7.0612,7.7848 C6.9842,7.8198 6.9352,7.8968 6.9352,7.9808" id="Fill-6" fill="#000000" sketch:type="MSShapeGroup"></path>
                <path d="M5.1515,12.0873 C5.0405,11.9763 5.0405,11.7953 5.1515,11.6843 L5.4755,11.3613 C5.5295,11.3073 5.6005,11.2773 5.6765,11.2773 C5.7525,11.2773 5.8245,11.3073 5.8785,11.3613 C5.9885,11.4723 5.9885,11.6533 5.8785,11.7633 L5.5545,12.0873 C5.4465,12.1953 5.2595,12.1953 5.1515,12.0873 M8.1415,12.7983 C8.0575,12.8773 8.0525,13.0123 8.1295,13.1003 C8.1595,13.1343 8.2125,13.2303 8.0715,13.3883 L7.5745,13.8863 C7.5025,13.9573 7.3665,13.9423 7.2775,13.8523 C7.2265,13.8023 7.1975,13.7373 7.1975,13.6733 C7.1975,13.6403 7.2055,13.5933 7.2435,13.5553 L7.7255,13.0703 L7.7255,13.0693 C7.9885,12.8063 7.9925,12.3823 7.7355,12.1243 C7.6515,12.0403 7.5155,12.0403 7.4315,12.1243 C7.3465,12.2083 7.3465,12.3453 7.4315,12.4293 C7.5215,12.5193 7.5165,12.6703 7.4205,12.7663 L6.8495,13.3373 C6.7535,13.4333 6.6025,13.4383 6.5125,13.3483 C6.4235,13.2583 6.4275,13.1103 6.5195,13.0143 L7.0005,12.5323 C7.1255,12.4083 7.1955,12.2413 7.1955,12.0643 C7.1955,11.8863 7.1255,11.7183 7.0005,11.5933 C6.9165,11.5093 6.7805,11.5093 6.6965,11.5933 C6.6125,11.6773 6.6125,11.8133 6.6965,11.8973 C6.7405,11.9423 6.7655,12.0003 6.7655,12.0643 C6.7655,12.1263 6.7405,12.1843 6.6965,12.2283 L6.6275,12.2973 L6.6275,12.2973 L6.2175,12.7063 C6.2155,12.7083 6.2145,12.7113 6.2125,12.7133 L6.1395,12.7853 C6.0485,12.8773 5.8995,12.8763 5.8085,12.7853 C5.7175,12.6933 5.7175,12.5453 5.8115,12.4503 L6.1065,12.1443 C6.1065,12.1443 6.1065,12.1443 6.1065,12.1433 L6.1825,12.0683 C6.4605,11.7893 6.4605,11.3353 6.1825,11.0573 C5.9115,10.7863 5.4405,10.7873 5.1715,11.0573 L4.8475,11.3803 C4.5685,11.6593 4.5685,12.1133 4.8475,12.3913 C4.9725,12.5173 5.1365,12.5873 5.3115,12.5973 C5.3115,12.6043 5.3095,12.6113 5.3095,12.6193 C5.3095,12.7963 5.3785,12.9633 5.5045,13.0893 C5.6305,13.2143 5.7965,13.2843 5.9745,13.2843 L5.9755,13.2843 C5.9925,13.2843 6.0085,13.2803 6.0255,13.2793 C6.0445,13.4163 6.1035,13.5473 6.2075,13.6523 C6.3355,13.7793 6.5025,13.8433 6.6715,13.8433 C6.7105,13.8433 6.7505,13.8383 6.7895,13.8313 C6.8205,13.9523 6.8815,14.0663 6.9735,14.1563 C7.1085,14.2923 7.2855,14.3613 7.4565,14.3613 C7.6125,14.3613 7.7645,14.3043 7.8785,14.1903 L8.3845,13.6843 C8.7345,13.2933 8.5725,12.9353 8.4385,12.8013 C8.3575,12.7183 8.2265,12.7183 8.1415,12.7983" id="Fill-8" fill="#000000" sketch:type="MSShapeGroup"></path>
            </g>
        </g>
    </g>
</svg>