<?xml version="1.0" encoding="UTF-8" standalone="no"?>
<svg width="30px" height="30px" viewBox="0 0 30 30" version="1.1" xmlns="http://www.w3.org/2000/svg" xmlns:xlink="http://www.w3.org/1999/xlink" xmlns:sketch="http://www.bohemiancoding.com/sketch/ns">
    <!-- Generator: Sketch 3.4.2 (15857) - http://www.bohemiancoding.com/sketch -->
    <title>Page 1</title>
    <desc>Created with Sketch.</desc>
    <defs></defs>
    <g id="Page-1" stroke="none" stroke-width="1" fill="none" fill-rule="evenodd" sketch:type="MSPage">
        <g id="Artboard-2" sketch:type="MSArtboardGroup">
            <g id="Page-1" sketch:type="MSLayerGroup">
                <path d="M15,11.5 C13.067,11.5 11.5,13.067 11.5,15 C11.5,16.933 13.067,18.5 15,18.5 C16.933,18.5 18.5,16.933 18.5,15 C18.5,13.067 16.933,11.5 15,11.5 M15,12 C16.654,12 18,13.346 18,15 C18,16.654 16.654,18 15,18 C13.346,18 12,16.654 12,15 C12,13.346 13.346,12 15,12" id="Fill-1" fill="#000000" sketch:type="MSShapeGroup"></path>
                <path d="M16.8168,25 C15.4358,25 14.3168,26.119 14.3168,27.5 C14.3168,28.881 15.4358,30 16.8168,30 C18.1978,30 19.3168,28.881 19.3168,27.5 C19.3168,26.119 18.1978,25 16.8168,25 M16.8168,25.5 C17.9198,25.5 18.8168,26.397 18.8168,27.5 C18.8168,28.603 17.9198,29.5 16.8168,29.5 C15.7138,29.5 14.8168,28.603 14.8168,27.5 C14.8168,26.397 15.7138,25.5 16.8168,25.5" id="Fill-3" fill="#000000" sketch:type="MSShapeGroup"></path>
                <path d="M26.5,0 C24.567,0 23,1.567 23,3.5 C23,5.433 24.567,7 26.5,7 C28.433,7 30,5.433 30,3.5 C30,1.567 28.433,0 26.5,0 M26.5,0.5 C28.154,0.5 29.5,1.846 29.5,3.5 C29.5,5.154 28.154,6.5 26.5,6.5 C24.846,6.5 23.5,5.154 23.5,3.5 C23.5,1.846 24.846,0.5 26.5,0.5" id="Fill-5" fill="#000000" sketch:type="MSShapeGroup"></path>
                <path d="M2,0 C0.895,0 0,0.895 0,2 C0,3.105 0.895,4 2,4 C3.105,4 4,3.105 4,2 C4,0.895 3.105,0 2,0 M2,0.5 C2.827,0.5 3.5,1.173 3.5,2 C3.5,2.827 2.827,3.5 2,3.5 C1.173,3.5 0.5,2.827 0.5,2 C0.5,1.173 1.173,0.5 2,0.5" id="Fill-7" fill="#000000" sketch:type="MSShapeGroup"></path>
                <path d="M2,24 C0.895,24 0,24.895 0,26 C0,27.105 0.895,28 2,28 C3.105,28 4,27.105 4,26 C4,24.895 3.105,24 2,24 M2,24.5 C2.827,24.5 3.5,25.173 3.5,26 C3.5,26.827 2.827,27.5 2,27.5 C1.173,27.5 0.5,26.827 0.5,26 C0.5,25.173 1.173,24.5 2,24.5" id="Fill-9" fill="#000000" sketch:type="MSShapeGroup"></path>
                <path d="M28,19.125 C26.895,19.125 26,20.02 26,21.125 C26,22.23 26.895,23.125 28,23.125 C29.105,23.125 30,22.23 30,21.125 C30,20.02 29.105,19.125 28,19.125 M28,19.625 C28.827,19.625 29.5,20.298 29.5,21.125 C29.5,21.952 28.827,22.625 28,22.625 C27.173,22.625 26.5,21.952 26.5,21.125 C26.5,20.298 27.173,19.625 28,19.625" id="Fill-11" fill="#000000" sketch:type="MSShapeGroup"></path>
                <path d="M17.1331,12.4722 L24.1671,5.5002" id="Stroke-13" stroke="#000000" stroke-width="0.5" sketch:type="MSShapeGroup"></path>
                <path d="M15.5514,18.2538 L16.3884,25.2498" id="Stroke-15" stroke="#000000" stroke-width="0.5" sketch:type="MSShapeGroup"></path>
                <path d="M12.5833,12.4722 L11.8723,11.7692" id="Stroke-17" stroke="#000000" stroke-width="0.5" sketch:type="MSShapeGroup"></path>
                <path d="M11.0778,10.9825 L4.3228,4.2985" id="Stroke-19" stroke="#000000" stroke-width="0.5" stroke-dasharray="2.236,1.118" sketch:type="MSShapeGroup"></path>
                <path d="M3.9255,3.9053 L3.2145,3.2023" id="Stroke-21" stroke="#000000" stroke-width="0.5" sketch:type="MSShapeGroup"></path>
                <path d="M3.3999,25 L12.5829,17.042" id="Stroke-23" stroke="#000000" stroke-width="0.5" stroke-dasharray="2,1" sketch:type="MSShapeGroup"></path>
                <path d="M26.3169,20.6986 L17.9019,16.5696" id="Stroke-25" stroke="#000000" stroke-width="0.5" stroke-dasharray="2,1" sketch:type="MSShapeGroup"></path>
            </g>
        </g>
    </g>
</svg>