<?xml version="1.0" encoding="UTF-8" standalone="no"?>
<svg width="30px" height="30px" viewBox="0 0 30 30" version="1.1" xmlns="http://www.w3.org/2000/svg" xmlns:xlink="http://www.w3.org/1999/xlink" xmlns:sketch="http://www.bohemiancoding.com/sketch/ns">
    <!-- Generator: Sketch 3.4.2 (15857) - http://www.bohemiancoding.com/sketch -->
    <title>strategy</title>
    <desc>Created with Sketch.</desc>
    <defs></defs>
    <g id="Page-1" stroke="none" stroke-width="1" fill="none" fill-rule="evenodd" sketch:type="MSPage">
        <g id="Artboard-1" sketch:type="MSArtboardGroup" fill="#000000">
            <g id="strategy" sketch:type="MSLayerGroup">
                <path d="M16.8168,29 C15.9898,29 15.3168,28.327 15.3168,27.5 C15.3168,26.673 15.9898,26 16.8168,26 C17.6438,26 18.3168,26.673 18.3168,27.5 C18.3168,28.327 17.6438,29 16.8168,29 M12.4998,15 C12.4998,13.622 13.6218,12.5 14.9998,12.5 C16.3788,12.5 17.4998,13.622 17.4998,15 C17.4998,16.378 16.3788,17.5 14.9998,17.5 C13.6218,17.5 12.4998,16.378 12.4998,15 M26.4998,1 C27.8788,1 28.9998,2.121 28.9998,3.5 C28.9998,4.878 27.8788,6 26.4998,6 C25.1218,6 23.9998,4.878 23.9998,3.5 C23.9998,2.121 25.1218,1 26.4998,1 M16.8618,25.005 L16.0618,18.318 C16.7658,18.093 17.3708,17.659 17.8018,17.078 L18.6308,17.485 L19.0718,16.587 L18.2768,16.196 C18.4138,15.822 18.4998,15.422 18.4998,15 C18.4998,14.114 18.1598,13.314 17.6168,12.697 L24.2288,6.143 C24.8418,6.67 25.6288,7 26.4998,7 C28.4328,7 29.9998,5.433 29.9998,3.5 C29.9998,1.567 28.4328,0 26.4998,0 C24.5668,0 22.9998,1.567 22.9998,3.5 C22.9998,4.199 23.2108,4.847 23.5638,5.394 L16.8558,12.043 C16.3168,11.704 15.6838,11.5 14.9998,11.5 C14.0488,11.5 13.1888,11.882 12.5578,12.498 L12.9348,12.117 L12.2238,11.413 L11.5208,12.124 L12.2318,12.828 L12.4948,12.561 C11.8818,13.192 11.4998,14.05 11.4998,15 C11.4998,15.733 11.7268,16.412 12.1128,16.975 L11.3858,17.507 L11.9778,18.313 L12.8058,17.707 C13.4078,18.195 14.1648,18.5 14.9998,18.5 C15.0258,18.5 15.0508,18.493 15.0768,18.492 L15.8768,25.186 C14.9628,25.558 14.3168,26.452 14.3168,27.5 C14.3168,28.881 15.4358,30 16.8168,30 C18.1978,30 19.3168,28.881 19.3168,27.5 C19.3168,26.135 18.2208,25.029 16.8618,25.005" id="Fill-1" sketch:type="MSShapeGroup"></path>
                <path d="M2,4 C2.522,4 2.994,3.795 3.35,3.467 L3.064,3.756 L4.474,5.15 L5.177,4.439 L3.768,3.045 L3.474,3.342 C3.798,2.987 4,2.519 4,2 C4,0.895 3.105,0 2,0 C0.895,0 0,0.895 0,2 C0,3.105 0.895,4 2,4" id="Fill-3" sketch:type="MSShapeGroup"></path>
                <path d="M28,19.125 C27.263,19.125 26.625,19.529 26.279,20.123 L25.355,19.67 L24.916,20.568 L26.002,21.101 C26.002,21.109 26,21.117 26,21.125 C26,22.23 26.895,23.125 28,23.125 C29.105,23.125 30,22.23 30,21.125 C30,20.02 29.105,19.125 28,19.125" id="Fill-5" sketch:type="MSShapeGroup"></path>
                <path d="M7.291,6.5312 L5.882,5.1362 L5.179,5.8472 L6.588,7.2422 L7.291,6.5312 Z" id="Fill-7" sketch:type="MSShapeGroup"></path>
                <path d="M11.5195,10.7158 L10.1105,9.3208 L9.4075,10.0318 L10.8165,11.4268 L11.5195,10.7158 Z" id="Fill-9" sketch:type="MSShapeGroup"></path>
                <path d="M9.4053,8.624 L7.9963,7.229 L7.2933,7.94 L8.7023,9.335 L9.4053,8.624 Z" id="Fill-11" sketch:type="MSShapeGroup"></path>
                <path d="M8.9658,19.2793 L9.5558,20.0863 L11.1698,18.9043 L10.5798,18.0973 L8.9658,19.2793 Z" id="Fill-13" sketch:type="MSShapeGroup"></path>
                <path d="M6.5449,21.0518 L7.1369,21.8588 L8.7499,20.6768 L8.1579,19.8698 L6.5449,21.0518 Z" id="Fill-15" sketch:type="MSShapeGroup"></path>
                <path d="M4.125,22.8242 L4.715,23.6312 L6.329,22.4492 L5.739,21.6422 L4.125,22.8242 Z" id="Fill-17" sketch:type="MSShapeGroup"></path>
                <path d="M3.9092,24.2217 L3.3172,23.4147 L3.2592,23.4577 C2.9142,23.1757 2.4802,22.9997 2.0002,22.9997 C0.8952,22.9997 0.0002,23.8957 0.0002,24.9997 C0.0002,26.1047 0.8952,26.9997 2.0002,26.9997 C3.1042,26.9997 4.0002,26.1047 4.0002,24.9997 C4.0002,24.7387 3.9462,24.4897 3.8552,24.2617 L3.9092,24.2217 Z" id="Fill-19" sketch:type="MSShapeGroup"></path>
                <path d="M22.2227,19.2471 L24.0187,20.1281 L24.4577,19.2291 L22.6617,18.3491 L22.2227,19.2471 Z" id="Fill-21" sketch:type="MSShapeGroup"></path>
                <path d="M19.5293,17.9258 L21.3253,18.8068 L21.7643,17.9078 L19.9683,17.0278 L19.5293,17.9258 Z" id="Fill-23" sketch:type="MSShapeGroup"></path>
            </g>
        </g>
    </g>
</svg>