<?xml version="1.0" encoding="UTF-8" standalone="no"?>
<svg width="30px" height="21px" viewBox="0 0 30 21" version="1.1" xmlns="http://www.w3.org/2000/svg" xmlns:xlink="http://www.w3.org/1999/xlink" xmlns:sketch="http://www.bohemiancoding.com/sketch/ns">
    <!-- Generator: Sketch 3.4.2 (15857) - http://www.bohemiancoding.com/sketch -->
    <title>Page 1</title>
    <desc>Created with Sketch.</desc>
    <defs>
        <path id="path-1" d="M0,0.449 L28.295,0.449 L28.295,20 L0,20"></path>
    </defs>
    <g id="Page-1" stroke="none" stroke-width="1" fill="none" fill-rule="evenodd" sketch:type="MSPage">
        <g id="Artboard-2" sketch:type="MSArtboardGroup" transform="translate(0.000000, -6.000000)">
            <g id="Page-1" sketch:type="MSLayerGroup" transform="translate(1.000000, 6.000000)">
                <g id="Group-3">
                    <mask id="mask-2" sketch:name="Clip 2" fill="white">
                        <use xlink:href="#path-1"></use>
                    </mask>
                    <g id="Clip-2"></g>
                    <path d="M8.8917,0.4488 C6.9947,0.4488 5.4577,1.9858 5.4577,3.8828 C5.4577,5.7798 6.9947,7.3168 8.8917,7.3168 C10.7887,7.3168 12.3257,5.7798 12.3257,3.8828 C12.3257,1.9858 10.7887,0.4488 8.8917,0.4488 M8.8917,0.9488 C10.5097,0.9488 11.8257,2.2648 11.8257,3.8828 C11.8257,5.5008 10.5097,6.8168 8.8917,6.8168 C7.2737,6.8168 5.9577,5.5008 5.9577,3.8828 C5.9577,2.2648 7.2737,0.9488 8.8917,0.9488" id="Fill-1" fill="#000000" sketch:type="MSShapeGroup" mask="url(#mask-2)"></path>
                </g>
                <path d="M19.9274,2.5446 C18.2704,2.5446 16.9274,3.8876 16.9274,5.5446 C16.9274,7.2016 18.2704,8.5446 19.9274,8.5446 C21.5844,8.5446 22.9274,7.2016 22.9274,5.5446 C22.9274,3.8876 21.5844,2.5446 19.9274,2.5446 M19.9274,3.0446 C21.3064,3.0446 22.4274,4.1666 22.4274,5.5446 C22.4274,6.9226 21.3064,8.0446 19.9274,8.0446 C18.5494,8.0446 17.4274,6.9226 17.4274,5.5446 C17.4274,4.1666 18.5494,3.0446 19.9274,3.0446" id="Fill-4" fill="#000000" sketch:type="MSShapeGroup"></path>
                <path d="M0.2471,19.75 C0.9971,14.857 1.3681,12.137 3.6411,10.578 C6.0601,8.917 9.7851,8.829 14.8521,9.911 C18.0951,10.604 23.8191,9.911 23.8191,9.911 C23.8191,9.911 25.4401,9.485 25.8221,10.604 C26.2031,11.723 25.5451,12.231 24.4331,12.786 C21.7321,14.136 13.3201,13.154 13.3201,13.154 C13.3201,13.154 12.6721,17.57 12.7451,19.75 L5.8091,19.75 C5.8091,19.75 6.1411,16.984 5.4581,14.122 C5.4581,14.122 4.9971,15.732 3.2401,19.75" id="Stroke-6" stroke="#000000" stroke-width="0.5" stroke-linejoin="round" sketch:type="MSShapeGroup"></path>
                <path d="M15.1429,15.2113 C15.1429,15.2113 24.9759,16.3143 26.8929,12.8783 C26.8929,12.8783 28.1749,15.6223 28.0339,19.7503 L25.2259,19.7503 C24.8929,17.7943 23.4659,16.9613 23.4659,16.9613 C23.4659,16.9613 23.2249,18.6283 23.4659,19.7503 L15.1429,19.7503 C15.1429,19.7503 14.5599,17.5443 15.1429,15.2113 L15.1429,15.2113 Z" id="Stroke-8" stroke="#000000" stroke-width="0.5" sketch:type="MSShapeGroup"></path>
            </g>
        </g>
    </g>
</svg>