<?xml version="1.0" encoding="UTF-8" standalone="no"?>
<svg width="30px" height="20px" viewBox="0 0 30 20" version="1.1" xmlns="http://www.w3.org/2000/svg" xmlns:xlink="http://www.w3.org/1999/xlink" xmlns:sketch="http://www.bohemiancoding.com/sketch/ns">
    <!-- Generator: Sketch 3.4.2 (15857) - http://www.bohemiancoding.com/sketch -->
    <title>Page 1</title>
    <desc>Created with Sketch.</desc>
    <defs>
        <path id="path-1" d="M0,0.975 L30,0.975 L30,21 L0,21"></path>
        <path id="path-3" d="M0,0.975 L30,0.975 L30,21 L0,21"></path>
        <path id="path-5" d="M0,0.975 L30,0.975 L30,21 L0,21"></path>
    </defs>
    <g id="Page-1" stroke="none" stroke-width="1" fill="none" fill-rule="evenodd" sketch:type="MSPage">
        <g id="Artboard-1" sketch:type="MSArtboardGroup" transform="translate(0.000000, -6.000000)">
            <g id="Page-1" sketch:type="MSLayerGroup" transform="translate(0.000000, 5.000000)">
                <g id="Group-3">
                    <mask id="mask-2" sketch:name="Clip 2" fill="white">
                        <use xlink:href="#path-1"></use>
                    </mask>
                    <g id="Clip-2"></g>
                    <path d="M10.1763,2.0099 C11.5653,2.0099 12.6953,3.1399 12.6953,4.5289 C12.6953,5.9179 11.5653,7.0489 10.1763,7.0489 C8.7873,7.0489 7.6573,5.9179 7.6573,4.5289 C7.6573,3.1399 8.7873,2.0099 10.1763,2.0099 M10.1763,8.0839 C12.1393,8.0839 13.7303,6.4919 13.7303,4.5289 C13.7303,2.5659 12.1393,0.9749 10.1763,0.9749 C8.2133,0.9749 6.6223,2.5659 6.6223,4.5289 C6.6223,6.4919 8.2133,8.0839 10.1763,8.0839" id="Fill-1" fill="#000000" sketch:type="MSShapeGroup" mask="url(#mask-2)"></path>
                </g>
                <path d="M21.5983,9.3541 C23.3133,9.3541 24.7033,7.9641 24.7033,6.2491 C24.7033,4.5341 23.3133,3.1441 21.5983,3.1441 C19.8833,3.1441 18.4933,4.5341 18.4933,6.2491 C18.4933,7.9641 19.8833,9.3541 21.5983,9.3541" id="Fill-4" fill="#000000" sketch:type="MSShapeGroup"></path>
                <g id="Group-8">
                    <mask id="mask-4" sketch:name="Clip 7" fill="white">
                        <use xlink:href="#path-3"></use>
                    </mask>
                    <g id="Clip-7"></g>
                    <path d="M26.4928,14.2077 C27.3488,13.7787 28.7818,13.0617 28.1898,11.3187 C27.7538,10.0437 26.2378,10.0727 25.5628,10.2547 C25.5048,10.2607 19.6888,10.9537 16.4528,10.2617 C10.3278,8.9527 6.0628,9.3647 3.4028,11.5167 C1.1128,13.3697 -0.0002,16.4557 -0.0002,20.9517 L1.0348,20.9517 C1.0348,16.7877 2.0228,13.9647 4.0538,12.3217 C6.4558,10.3777 10.4408,10.0357 16.2368,11.2747 C19.6398,12.0027 25.4428,11.3107 25.7568,11.2687 C25.7698,11.2667 26.9768,10.9697 27.2098,11.6527 C27.4368,12.3187 27.2978,12.6467 26.0298,13.2817 C23.4038,14.5907 14.9058,13.6207 14.8198,13.6107 C14.5448,13.5857 14.2858,13.7747 14.2478,14.0537 C14.2268,14.2087 13.7568,17.6157 13.7468,19.9267 L7.6178,19.9267 C7.6568,19.0307 7.6468,17.1847 7.1258,15.0057 C7.0888,14.8507 6.9808,14.7197 6.8348,14.6547 C6.6878,14.5887 6.5208,14.5927 6.3778,14.6707 C6.1648,14.7847 4.2768,15.9327 3.8118,20.9027 L4.8428,20.9997 C5.0958,18.2757 5.8038,16.8537 6.3108,16.1627 C6.7448,18.5537 6.5518,20.3667 6.5498,20.3867 C6.5338,20.5327 6.5798,20.6797 6.6788,20.7887 C6.7768,20.8987 6.9168,20.9617 7.0638,20.9617 L14.2718,20.9617 C14.4118,20.9617 14.5468,20.9047 14.6438,20.8037 C14.7418,20.7027 14.7938,20.5677 14.7888,20.4267 C14.7308,18.7007 15.0628,15.8397 15.2078,14.6937 C17.1428,14.8887 23.9608,15.4707 26.4928,14.2077" id="Fill-6" fill="#000000" sketch:type="MSShapeGroup" mask="url(#mask-4)"></path>
                </g>
                <g id="Group-11">
                    <mask id="mask-6" sketch:name="Clip 10" fill="white">
                        <use xlink:href="#path-5"></use>
                    </mask>
                    <g id="Clip-10"></g>
                    <path d="M28.8078,13.8391 C26.8238,17.3951 16.6468,16.2541 16.6468,16.2541 C16.0428,18.6691 16.6468,20.9521 16.6468,20.9521 L25.2608,20.9521 C25.0108,19.7901 25.2608,18.0651 25.2608,18.0651 C25.2608,18.0651 26.7378,18.9281 27.0828,20.9521 L29.9888,20.9521 C30.1348,16.6791 28.8078,13.8391 28.8078,13.8391" id="Fill-9" fill="#000000" sketch:type="MSShapeGroup" mask="url(#mask-6)"></path>
                </g>
            </g>
        </g>
    </g>
</svg>