<?xml version="1.0" encoding="UTF-8" standalone="no"?>
<svg width="60px" height="56px" viewBox="0 0 60 56" version="1.1" xmlns="http://www.w3.org/2000/svg" xmlns:xlink="http://www.w3.org/1999/xlink" xmlns:sketch="http://www.bohemiancoding.com/sketch/ns">
    <!-- Generator: Sketch 3.4.1 (15681) - http://www.bohemiancoding.com/sketch -->
    <title>wizard</title>
    <desc>Created with Sketch.</desc>
    <defs></defs>
    <g id="Page-1" stroke="none" stroke-width="1" fill="none" fill-rule="evenodd" sketch:type="MSPage">
        <g id="v5_below_fold" sketch:type="MSArtboardGroup" transform="translate(-55.000000, -561.000000)" fill="#010002">
            <g id="Group" sketch:type="MSLayerGroup" transform="translate(40.000000, 160.000000)">
                <g id="Group-Copy-3" transform="translate(0.000000, 384.000000)" sketch:type="MSShapeGroup">
                    <g id="wizard" transform="translate(15.000000, 17.000000)">
                        <g id="Group">
                            <path d="M33.1401018,15.4081835 L0.100602815,48.2898155 L0,48.387946 L6.69832865,55.0534665 L6.79495283,55.151597 L39.8364411,22.2702478 L39.9350546,22.1721173 L33.236726,15.5065968 L33.1401018,15.4081835 L33.1401018,15.4081835 Z M33.1401018,17.1196697 L38.2182704,22.1721173 L6.79608958,53.4403936 L1.72076283,48.387946 L33.1401018,17.1196697 L33.1401018,17.1196697 Z" id="Shape"></path>
                            <path d="M44.4417197,17.7715163 C45.1607172,17.1643516 45.7791119,16.6408947 45.8146355,15.8637691 C45.8350971,15.3841458 45.6111564,14.9206418 45.1311616,14.4418668 L40.9103904,10.2426172 C40.450573,9.7842036 40.0032599,9.56135972 39.5383271,9.56135972 C38.7266841,9.56135972 38.1602959,10.2253666 37.5612261,10.927551 L37.4961468,11.0024922 C37.2824369,11.2493738 37.0619064,11.5055877 36.8075575,11.7575596 C36.5512193,12.0146219 36.2877763,12.2394454 36.0314381,12.4569161 L35.9746003,12.5024464 C35.2564554,13.1138531 34.634082,13.6390067 34.6025371,14.4133044 C34.5832122,14.8980181 34.8068688,15.3626532 35.2871477,15.8383174 L39.5070664,20.0395467 C39.965747,20.4971119 40.4133443,20.7185418 40.8791296,20.7208041 C41.686794,20.7208041 42.2278894,20.0862081 42.8704401,19.3342514 C43.0983595,19.0670085 43.3342362,18.790716 43.6036471,18.5214934 C43.8793102,18.2491601 44.1569626,18.014156 44.4417197,17.7715163 L44.4417197,17.7715163 Z M40.8791296,19.5112822 C40.7620439,19.5112822 40.5730584,19.3927904 40.3636113,19.1843691 L36.1436926,14.9851195 C35.8549569,14.693556 35.8163072,14.5346242 35.8163072,14.463925 C35.8285273,14.2170434 36.3278469,13.7948278 36.7672027,13.4204048 C37.0448551,13.1856835 37.3611572,12.9184405 37.6683652,12.6138684 C37.9744365,12.3101446 38.2461209,11.9925638 38.4910916,11.7060906 C38.8673575,11.2677556 39.2925039,10.7708816 39.5397481,10.7708816 C39.6568338,10.7708816 39.8426933,10.8902219 40.0524246,11.0977947 L44.2723432,15.2990239 C44.5653418,15.5905874 44.6039915,15.7464085 44.6008654,15.8171077 C44.5906346,16.0580505 44.1046719,16.4720651 43.6570746,16.8504472 C43.3467405,17.1125998 43.0426585,17.3716417 42.7488074,17.6663159 C42.4384733,17.97513 42.1679256,18.2887517 41.9300596,18.5681549 C41.5535095,19.0093179 41.1283632,19.5112822 40.8791296,19.5112822 L40.8791296,19.5112822 Z" id="Shape"></path>
                            <path d="M48.6900572,19.8927751 L46.6782851,22.5587005 L43.3322469,22.7051893 L46.014136,24.7133293 L46.16163,28.0248798 L48.164308,25.3742254 L51.5165984,25.2274539 L48.8406772,23.2244042 L48.6900572,19.8927751 Z" id="Shape"></path>
                            <path d="M55.4790421,7.05832527 L55.2227038,1.31981265 L51.7513383,5.91158425 L45.9834436,6.16468739 L50.6091838,9.62612019 L50.8592699,15.3352219 L54.3132999,10.7677709 L60.0973933,10.5146677 L55.4790421,7.05832527 L55.4790421,7.05832527 Z M53.7906768,9.77600249 L51.7544644,12.471056 L51.6029918,9.10294611 L48.8639807,7.05238653 L52.213145,6.90448381 L52.2770875,6.90137304 L54.3326247,4.18284743 L54.4860866,7.58036815 L57.2160037,9.6247062 L53.8554718,9.77260893 L53.7906768,9.77600249 L53.7906768,9.77600249 Z" id="Shape"></path>
                            <path d="M38.8744622,8.71636289 L40.9899632,5.9166746 L44.5303866,5.76396432 L41.7049821,3.64468512 L41.545268,0.126692965 L39.4215256,2.94334907 L35.8853651,3.09605934 L38.7198636,5.21760091 L38.8744622,8.71636289 Z" id="Shape"></path>
                        </g>
                    </g>
                </g>
            </g>
        </g>
    </g>
</svg>