<?xml version="1.0" encoding="UTF-8" standalone="no"?>
<svg width="30px" height="30px" viewBox="0 0 30 30" version="1.1" xmlns="http://www.w3.org/2000/svg" xmlns:xlink="http://www.w3.org/1999/xlink" xmlns:sketch="http://www.bohemiancoding.com/sketch/ns">
    <!-- Generator: Sketch 3.4.2 (15857) - http://www.bohemiancoding.com/sketch -->
    <title>Page 1</title>
    <desc>Created with Sketch.</desc>
    <defs></defs>
    <g id="Page-1" stroke="none" stroke-width="1" fill="none" fill-rule="evenodd" sketch:type="MSPage">
        <g id="Artboard-1" sketch:type="MSArtboardGroup" fill="#000000">
            <g id="Page-1" sketch:type="MSLayerGroup">
                <path d="M28.5,0 L1.5,0 C0.673,0 0,0.673 0,1.5 L0,19.5 C0,20.327 0.673,21 1.5,21 L2,21 L2,20 L1.5,20 C1.225,20 1,19.775 1,19.5 L1,1.5 C1,1.225 1.225,1 1.5,1 L28.5,1 C28.775,1 29,1.225 29,1.5 L29,19.5 C29,19.775 28.775,20 28.5,20 L23.688,20 L23.688,21 L28.5,21 C29.327,21 30,20.327 30,19.5 L30,1.5 C30,0.673 29.327,0 28.5,0" id="Fill-1" sketch:type="MSShapeGroup"></path>
                <path d="M5,6.5 L15,6.5 C15.275,6.5 15.5,6.725 15.5,7 L15.5,10.667 L4.5,10.667 L4.5,7 C4.5,6.725 4.725,6.5 5,6.5 M4.5,25 L4.5,11.667 L15.5,11.667 L15.5,13.253 L16.5,13.253 L16.5,7 C16.5,6.173 15.827,5.5 15,5.5 L5,5.5 C4.173,5.5 3.5,6.173 3.5,7 L3.5,25 C3.5,25.827 4.173,26.5 5,26.5 L7.5,26.5 L7.5,25.5 L5,25.5 C4.725,25.5 4.5,25.275 4.5,25" id="Fill-3" sketch:type="MSShapeGroup"></path>
                <path d="M15,15.4512 C11.41,15.4512 8.489,18.3712 8.489,21.9612 C8.489,22.8392 8.661,23.6912 9.001,24.4952 C9.082,24.6862 9.268,24.8012 9.462,24.8012 C9.527,24.8012 9.593,24.7882 9.656,24.7622 C9.911,24.6542 10.03,24.3602 9.923,24.1062 C9.635,23.4262 9.489,22.7042 9.489,21.9612 C9.489,18.9232 11.961,16.4512 15,16.4512 C18.039,16.4512 20.511,18.9232 20.511,21.9612 C20.511,22.6772 20.376,23.3722 20.11,24.0262 C20.006,24.2822 20.129,24.5742 20.385,24.6782 C20.645,24.7822 20.933,24.6582 21.036,24.4032 C21.352,23.6282 21.511,22.8052 21.511,21.9612 C21.511,18.3712 18.59,15.4512 15,15.4512" id="Fill-5" sketch:type="MSShapeGroup"></path>
                <path d="M15,19 C13.346,19 12,20.455 12,22.244 L12,30 L13,30 L13,22.244 C13,21.007 13.897,20 15,20 C16.103,20 17,21.007 17,22.244 L17,30 L18,30 L18,22.244 C18,20.455 16.654,19 15,19" id="Fill-7" sketch:type="MSShapeGroup"></path>
                <path d="M15,21.5 C14.448,21.5 14,21.948 14,22.5 L14,24 L16,24 L16,22.5 C16,21.948 15.552,21.5 15,21.5" id="Fill-9" sketch:type="MSShapeGroup"></path>
                <path d="M25.3457,12.5428 C25.5527,11.7328 25.1457,10.7048 24.2087,10.4648 C23.6587,10.3248 23.2427,10.5028 22.9797,10.6938 C22.8407,10.3998 22.5617,10.0438 22.0117,9.9038 C21.0747,9.6638 20.2237,10.3708 20.0167,11.1808 C19.7157,12.3608 21.5767,14.5208 21.7907,14.7628 C21.8257,14.8018 21.8707,14.8288 21.9197,14.8418 C21.9687,14.8548 22.0217,14.8528 22.0717,14.8348 C22.3747,14.7238 25.0447,13.7228 25.3457,12.5428" id="Fill-11" sketch:type="MSShapeGroup"></path>
                <path d="M24.9979,8.9511 C25.0179,8.9651 25.0419,8.9721 25.0649,8.9721 C25.0889,8.9721 25.1119,8.9651 25.1319,8.9511 C25.2559,8.8671 26.3399,8.1101 26.3399,7.5461 C26.3399,7.1581 26.0389,6.7431 25.5909,6.7431 C25.3279,6.7431 25.1619,6.8711 25.0649,6.9871 C24.9689,6.8711 24.8029,6.7431 24.5389,6.7431 C24.0909,6.7431 23.7899,7.1581 23.7899,7.5461 C23.7899,8.1101 24.8739,8.8671 24.9979,8.9511" id="Fill-13" sketch:type="MSShapeGroup"></path>
                <path d="M21.4659,8.1906 C21.4889,8.1986 21.5129,8.1996 21.5359,8.1936 C21.5589,8.1876 21.5799,8.1756 21.5959,8.1576 C21.6949,8.0446 22.5569,7.0426 22.4169,6.4956 C22.3209,6.1206 21.9259,5.7926 21.4919,5.9046 C21.2369,5.9696 21.1069,6.1346 21.0429,6.2716 C20.9209,6.1826 20.7279,6.1006 20.4729,6.1656 C20.0389,6.2766 19.8499,6.7536 19.9469,7.1296 C20.0869,7.6766 21.3249,8.1396 21.4659,8.1906" id="Fill-15" sketch:type="MSShapeGroup"></path>
                <path d="M9.5,9.4717 L10.5,9.4717 C10.776,9.4717 11,9.2477 11,8.9717 C11,8.6957 10.776,8.4717 10.5,8.4717 L9.5,8.4717 C9.224,8.4717 9,8.6957 9,8.9717 C9,9.2477 9.224,9.4717 9.5,9.4717" id="Fill-17" sketch:type="MSShapeGroup"></path>
            </g>
        </g>
    </g>
</svg>