<?xml version="1.0" encoding="utf-8"?>
<!-- Generator: Adobe Illustrator 19.0.0, SVG Export Plug-In . SVG Version: 6.00 Build 0)  -->
<svg version="1.1" id="Layer_1" xmlns="http://www.w3.org/2000/svg" xmlns:xlink="http://www.w3.org/1999/xlink" x="0px" y="0px"
	 viewBox="0 0 218 32" style="enable-background:new 0 0 218 32;" xml:space="preserve">
<style type="text/css">
	.st0{fill:#303030;}
</style>
<g id="XMLID_245_">
	<g id="XMLID_301_">
		<path id="XMLID_312_" class="st0" d="M0.1,24.8v-14h5.5c4.4,0,7.4,2.8,7.4,7c0,4.2-3,7-7.4,7H0.1z M10,17.7c0-2.5-1.5-4.4-4.4-4.4
			H3.1v8.8h2.5C8.4,22.1,10,20.1,10,17.7z"/>
		<path id="XMLID_310_" class="st0" d="M16.2,24.8v-14h9.9v2.6h-6.9v2.9h6.8v2.6h-6.8v3.2h6.9v2.6H16.2z"/>
		<path id="XMLID_308_" class="st0" d="M28.4,22.8l1.6-2.3c1,1,2.5,1.9,4.5,1.9c1.7,0,2.4-0.7,2.4-1.6c0-2.4-8.1-0.7-8.1-6
			c0-2.3,2-4.3,5.3-4.3c2.2,0,4.1,0.7,5.5,2L38,14.7c-1.1-1-2.6-1.5-4.1-1.5c-1.3,0-2,0.5-2,1.4c0,2.2,8,0.7,8,5.9
			c0,2.6-1.8,4.5-5.6,4.5C31.7,25,29.8,24.1,28.4,22.8z"/>
		<path id="XMLID_306_" class="st0" d="M43,24.8v-14h3v14H43z"/>
		<path id="XMLID_304_" class="st0" d="M49.1,17.8c0-4.4,3.4-7.2,7.5-7.2c2.9,0,4.7,1.5,5.8,3.1L59.9,15c-0.7-1-1.8-1.8-3.3-1.8
			c-2.6,0-4.4,2-4.4,4.6c0,2.6,1.8,4.6,4.4,4.6c1.2,0,2.4-0.5,3-1.1v-1.7h-3.7V17h6.7v5.4C61.1,24,59.1,25,56.6,25
			C52.4,25,49.1,22.2,49.1,17.8z"/>
		<path id="XMLID_302_" class="st0" d="M75.5,24.8l-6.7-9.1v9.1h-3v-14h3.1l6.5,8.8v-8.8h3v14H75.5z"/>
	</g>
	<g id="XMLID_250_">
		<path id="XMLID_299_" class="st0" d="M130.7,17.7c0-4.3,3.3-7.2,7.5-7.2c3.1,0,4.8,1.7,5.8,3.4l-2.6,1.3c-0.6-1.1-1.8-2-3.3-2
			c-2.6,0-4.4,2-4.4,4.6c0,2.6,1.8,4.6,4.4,4.6c1.4,0,2.7-0.9,3.3-2l2.6,1.2c-1,1.7-2.8,3.4-5.8,3.4C133.9,24.9,130.7,22,130.7,17.7
			z"/>
		<path id="XMLID_296_" class="st0" d="M156.3,24.7l-0.9-2.4h-6l-0.9,2.4h-3.4l5.4-14h3.7l5.4,14H156.3z M152.4,13.6l-2.2,6h4.4
			L152.4,13.6z"/>
		<path id="XMLID_293_" class="st0" d="M162,24.7v-14h6.6c3,0,4.7,2.1,4.7,4.5c0,2.4-1.7,4.5-4.7,4.5H165v5H162z M170.2,15.2
			c0-1.2-0.9-1.9-2.1-1.9H165V17h3.1C169.3,17,170.2,16.3,170.2,15.2z"/>
		<path id="XMLID_291_" class="st0" d="M176.1,24.7v-14h3v14H176.1z"/>
		<path id="XMLID_289_" class="st0" d="M186.1,24.7V13.3H182v-2.6h11.2v2.6h-4.1v11.4H186.1z"/>
		<path id="XMLID_286_" class="st0" d="M203.4,24.7l-0.9-2.4h-6l-0.9,2.4h-3.4l5.4-14h3.7l5.4,14H203.4z M199.5,13.6l-2.2,6h4.4
			L199.5,13.6z"/>
		<path id="XMLID_282_" class="st0" d="M209,24.7v-14h3V22h5.9v2.6H209z"/>
	</g>
	<path id="XMLID_367_" class="st0" d="M110.1,4.6l2.3,3.1c3.8,2.1,6.4,5.8,6.4,10.1c0,4.5-2.9,8.4-7.2,10.5l-1.8-20l-5-8l-5,8
		l-1.8,20c-4.3-2.1-7.2-6-7.2-10.5c0-4.2,2.6-7.9,6.4-10.1l2.3-3.1c-6.2,1.9-10.7,7.1-10.7,13.2c0,7.7,7.2,14,16,14s16-6.3,16-14
		C120.8,11.7,116.3,6.5,110.1,4.6z"/>
</g>
</svg>
